<?xml version="1.0" encoding="UTF-8" standalone="no"?>
<svg width="516px" height="496px" viewBox="0 0 516 496" version="1.1" xmlns="http://www.w3.org/2000/svg" xmlns:xlink="http://www.w3.org/1999/xlink">
    <title>mp</title>
    <defs>
        <style>
            .mp {
                stroke-width: 0.17em;
            }
            .mp-1 {
                stroke: #5ab348;
                fill: #5ab348;
                fill-opacity: .17;
                filter: url(#dropshadow);
            }
            .mp-2 {
                stroke: #c63a3a;
                fill: none;
                filter: url(#dropshadow);
            }
            .mp-3 {
                stroke: #f56c23;
                fill: none;
            }
            .mp-4 {
                stroke: #ffad2d;
                fill: none;
            }
            .mp-5 {
                stroke: #efd000;
                fill: none;
            }
            .mp-6 {
                stroke: #4ab8b3;
                fill: url(#pattern);
                fill-opacity: .4;
            }
    </style>
    <filter id="dropshadow" height="130%">
            <feGaussianBlur in="SourceAlpha" stdDeviation="4"/>
            <feOffset dx="2" dy="2" result="offsetblur"/>
            <feMerge>
                    <feMergeNode/>
                    <feMergeNode in="SourceGraphic"/>
            </feMerge>
    </filter>
    <pattern id="pattern" width="6" height="6" patternUnits="userSpaceOnUse" patternTransform="rotate(-45 50 50)">
            <rect x="0" y="0" width="5" height="6" fill="#4ab8b3" />
            <rect x="5" y="0" width="1" height="6" fill="#555" />
    </pattern>
    </defs>
    <g transform="translate(3.000000, 3.000000)">
        <path class="mp mp-1" d="M314.710051,7.68456333 C333.160296,3.91693262 351.595955,0 351.595955,0 L336.841593,91.9073774 L348.214747,103.280531 L403.236221,107.276504 L447.191923,126.948986 L460.716754,125.719456 L478.237559,173.056366 L503.750309,181.97046 L480.366783,327.420244 L436.433534,373.469778 L304.660008,482.399991 L0.520170083,170.575209 C0.520170083,170.575209 14.5855889,167.919574 29.0769876,160.209776 C46.5805308,150.897439 80.8833019,130.767967 112.759727,95.5959678 C135.502483,70.5019302 154.729362,44.8484258 191.853139,28.8177039 C223.770675,15.0351317 241.421993,22.6503454 314.710051,7.68456333 Z M250.499059,336.471221 L339.721954,343.359753 L437.473509,332.862942 L452.8907,315.477599 L473.556297,186.235611 L445.346117,148.18467 L398.438492,124.238819 L336.769726,116.038186 L318.400306,91.7643096 L326.928966,43.8726084 L279.36529,36 L273.788859,66.1783323 L250.499059,61.9140027 L232.129639,72.4108139 L227.209259,89.4681321 L191.782521,113.742008 L169.675583,146.86196 L157.390209,175.88443 L153,206.786434 L156.648331,259.801189 L171.167968,287.423913 L250.499059,336.471221 Z"></path>
        <polygon class="mp mp-2" points="250.499059 336.471221 339.721954 343.359753 437.473509 332.862942 452.8907 315.477599 473.556297 186.235611 445.346117 148.18467 398.438492 124.238819 336.769726 116.038186 318.400306 91.7643096 326.928966 43.8726084 279.36529 36 273.788859 66.1783323 250.499059 61.9140027 232.129639 72.4108139 227.209259 89.4681321 191.782521 113.742008 169.675583 146.86196 157.390209 175.88443 153 206.786434 156.648331 259.801189 171.167968 287.423913"></polygon>
        <polygon class="mp mp-3" points="217.600814 214.413752 219.170827 201.749822 269.962164 210.54783 300.338152 43.2645291 282.437624 40.2333719 276.746324 70.6764591 251.242856 66.1126806 235.457551 75.1060088 230.759544 92.0456808 194.526645 116.33298 172.941686 148.710419 161.058501 176.793356 157.118532 206.188643"></polygon>
        <polygon class="mp mp-4" points="274.021978 211.339932 415.114512 234.196219 413.478218 245.773445 458.820011 253.019352 469.590535 187.170791 442.7908 151.177885 397.185033 127.798952 334.904754 119.442971 314.373119 92.6810467 322.505514 47.0359653 304.173855 43.9213275"></polygon>
        <polygon class="mp mp-5" points="384.255625 287.795317 384.275644 304.741594 388.281138 334.148148 435.620452 329.22838 449.20388 313.624184 458.200231 256.993634 413.027411 249.874005 408.136139 289.800551"></polygon>
        <polygon class="mp mp-6" points="251.882705 332.658028 339.73317 339.568489 384.333896 334.75467 380.508529 305.017695 380.427451 283.602555 404.672553 285.607789 410.506818 237.524008 222.545183 206.470866 221.019342 218.743234 157.178501 210.210955 160.667256 258.91945 174.240358 284.840644"></polygon>
    </g>
</svg>
