<svg xmlns="http://www.w3.org/2000/svg" viewBox="0 0 730 695">
	<defs>
		<style>
			.lot {
				stroke: none;
				fill: none;
			}
			.lot-on-sale,
			.th-on-sale,
			.fut {
				stroke-linecap: round;
				stroke-linejoin: round;
				stroke-width: 2.5;
				fill-opacity: .5;
			}
			.lot-on-sale {
				fill: #5ab347;
				stroke: #eed016;
				cursor: pointer;
			}
			.th-on-sale {
				fill: #4892b3;
				stroke: #03fff4;
				cursor: pointer;
			}
			.fut {
				fill: url(#pattern);
				fill-opacity: .4;
				stroke: #4abbb3;
			}
			.lot-on-sale:hover,
			.th-on-sale:hover {
				stroke: #ef0000;
			}
			.lot-on-sale.selected {
				stroke: #ef0000;
				fill: #b8973b;
			}
		</style>
		<pattern id="pattern" width="6" height="6" patternUnits="userSpaceOnUse" patternTransform="rotate(-45 50 50)">
			<rect x="0" y="0" width="5" height="6" fill="#4ab8b3" />
			<rect x="5" y="0" width="1" height="6" fill="#555" />
		</pattern>
	</defs>
	<polygon id="lot1" class="lot" points="727.9,457.7 715.1,457.6 714.8,449.1 712.5,446.4 682.6,446.1 680.6,447.7 680.4,474.7 728.2,474.3"/>
	<polygon id="lot2" class="lot" points="679.5,500.6 728.7,502.5 728.2,474.3 680.4,474.7"/>
	<polygon id="lot3" class="lot" points="678.1,539.5 725.3,541.5 728.7,502.5 679.5,500.4"/>
	<polygon id="lot4" class="lot" points="650.2,580.2 611,588.9 621,635 664.2,617.6"/>
	<path id="lot5" class="lot" d="M611,588.9c0,0-16.3,3.3-27.9,6c-6.4,1.5-11.2,3.1-11.2,3.1l16.4,50.2L621,635L611,588.9z"/>
	<path id="lot6" class="lot" d="M571.9,598c0,0-7.7,2.4-13.7,5.1c-10.9,4.8-20.9,8.5-20.9,8.5l19.9,49.2l31.1-12.6L571.9,598z"
	/>
	<path id="lot7" class="lot" d="M537.2,611.6c0,0-4.7,1.6-10.7,4.3c-11,4.9-19.9,5.4-19.9,5.4l15,53.8l35.4-14.3L537.2,611.6z"
	/>
	<path id="lot8" class="lot" d="M678.1,539.5c0,0,0.1,7.5-1.7,14c-1.7,6-5.2,11-5.2,11l49.3,30.3l4.8-53.4L678.1,539.5z"/>	
	<path id="lot9" class="lot" d="M671.1,564.5c0,0-2.9,4.4-8.1,8.6c-6.2,5-12.8,6.9-12.8,6.9l14,37.5l56.2-22.8L671.1,564.5z"/>
	<polygon id="lot10" class="lot" points="506.6,621.4 478.5,623.8 482.9,678.3 514.3,678.1 521.6,675.1"/>
	<polygon id="lot11" class="lot" points="478.5,623.7 443.5,626.4 447.7,679.7 459,678.7 482.9,678.3"/>
	<polygon id="lot12" class="lot" points="443.5,626.4 408.2,629.3 412.5,682.5 447.7,679.7"/>
	<polygon id="lot13" class="lot" points="408.2,629.3 372.9,632.2 377.2,685.4 412.5,682.5"/>
	<polygon id="lot14" class="lot" points="372.9,632.2 338.4,634.8 342.7,688.4 377.2,685.4"/>
	<path id="lot15" class="lot" d="M338.4,635c0,0-9.5,0.5-18.2,0.7c-7.4,0.1-14.2-0.2-14.2-0.2l-2.1,56.4l38.8-3.5L338.4,635z"/>
	<polygon id="lot16" class="lot" points="268.8,689.6 296.8,692.6 303.8,691.9 305.9,635.6 272.6,633.6"/>
	<path id="lot17" class="lot" d="M261.5,642.5l0.5-9.8c0,0-9.1-0.4-15.9-1c-4-0.3-7.2-1-7.2-1l-12.9,50.4l12,5.2l30.9,3.3l3.1-46.6 L261.5,642.5z"/>
	<path id="lot18" class="lot" d="M232.6,628.5c-8.5-4-22.7-11.3-22.7-11.3l-22.2,43.7l27.7,15.7l10.5,4.5l12.9-50.4 C238.8,630.7,236.2,630.2,232.6,628.5"/>
	<polygon id="lot19" class="lot" points="211.5,562.2 189.2,552.9 173.7,584.8 217.2,606.7 229.2,582.7 232.9,564"/>
	<path id="lot20" class="lot" d="M232.9,564l-3.8,18.6l-11.9,24.1c0,0,8.5,4.3,18.6,9.4c7.5,3.8,20.9,3.8,20.9,3.8l4.1-3.7l1.2-50 L232.9,564z"/>
	<path id="lot21" class="lot" d="M259,526.2c0,0-11.9-0.4-20.5-0.7c-6.6-0.2-17.4-3-17.4-3l-9.4,39.6l50.4,4.1l0.8-36L259,526.2z"/>
	<path id="lot22" class="lot" d="M186.6,447.7l-0.1,38.1c0,0,5.7,1.5,9.9,13.5c1.7,4.7,3.4,5.1,3.4,5.1l23.9,5.5l1.7-61.9 L186.6,447.7z"/>
	<polygon id="lot23" class="lot" points="225,466.3 223.8,509.8 235.4,512.6 259.5,513.3 263.3,509.7 264.2,466.4"/>
	<polygon id="lot24" class="lot" points="281.2,448.4 277.3,452.7 276.6,479.5 321,480.2 321.1,448.4"/>
	<polygon id="lot25" class="lot" points="276.6,479.5 275.8,513.9 320.3,514.7 321,480.2"/>
	<polygon id="lot26" class="lot" points="275.8,513.9 275.1,549.6 319.4,550.7 320.3,514.7"/>
	<polygon id="lot27" class="lot" points="275.1,549.6 274.1,584.8 318.6,586 319.4,550.7"/>
	<polygon id="lot28" class="lot" points="274.1,584.8 273.5,617.1 277.2,620.9 317.7,623 318.6,585.9"/>
	<polygon id="lot29" class="lot" points="353.2,569.4 318.9,570.5 317.7,623 354.7,620.5"/>
	<polygon id="lot30" class="lot" points="391.3,568.2 353.2,569.4 354.7,620.5 392.8,617.5"/>
	<polygon id="lot31" class="lot" points="426.3,606 425.9,567.3 391.3,568.2 392.8,617.5 426.8,614.8"/>
	<polygon id="lot32" class="lot" points="464.1,566 425.9,567.3 426.3,606.1 437.8,605.1 438.7,613.8 460.8,612 464.5,608.1"/>
	<polygon id="lot33" class="lot" points="463.7,529.6 459.5,525.5 425.5,525.7 425.9,567.3 464.1,566"/>
	<polygon id="lot34" class="lot" points="425.5,525.7 390.4,525.7 391.3,568.2 425.9,567.3"/>
	<path id="lot35" class="lot" d="M390.4,525.7h-9.8c0,0-2.7,4.6-7.8,6.7c-5.9,2.4-12.4-1.4-12.4-1.4l-7.1,10.1l-0.1,28.4l38.2-1.2 L390.4,525.7z"/>
	<path id="lot36" class="lot" d="M355.4,524.4c-1.3-3.7-0.3-8.4-0.3-8.4l-34.8-1.3l-1.4,55.9l34.3-1.2l0.1-28.4l7.1-10.1 C360.3,530.9,356.8,528.6,355.4,524.4"/>
	<path id="lot37" class="lot" d="M359,480.8l-38.1-0.7l-0.7,34.5l34.8,1.3c0,0,1.4-5,6.4-8.1c4-2.5,10.6-1,10.6-1l5.4-18.2 L359,480.8z"/>
	<path id="lot38" class="lot" d="M393.2,482l-15.8,6.7l-5.2,18.2c0,0,2,0.4,4.4,2.5c2.2,1.8,3,3.4,3,3.4l43.8-0.1l0.1-30.9 L393.2,482z"/>
	<polygon id="lot39" class="lot" points="423.5,481.7 423.3,512.6 460.9,512.6 465.3,508.8 469.8,481.3"/>
	<polygon id="lot40" class="lot" points="471,448.4 431.2,448.4 431.1,481.6 469.8,481.3 474.4,453.1"/>
	<polygon id="lot41" class="lot" points="393,448.4 393.2,482 431.1,481.6 431.2,448.4"/>
	<polygon id="lot42" class="lot" points="393,448.5 359.3,448.4 359,480.8 377.4,488.7 393.2,482"/>
	<polygon id="lot43" class="lot" points="321.1,448.4 321,480.2 359,480.8 359.3,448.4"/>
	<polygon id="lot44" class="lot" points="491.7,448.1 487.4,452.6 481.3,488.9 516.5,492.3 516.8,448.1"/>
	<path id="lot45" class="lot" d="M481.3,488.9c0,0-4.8,25.1-4.8,34c0,7-0.1,10.7-0.1,10.7l37.5-2.4l2.6-39L481.3,488.9z"/>
	<polygon id="lot46" class="lot" points="513.9,531.3 476.4,533.5 476.8,573.2 515.9,570.2"/>
	<path id="lot47" class="lot" d="M515.9,570.2l-39.1,3l0.3,34.1l3.5,3.5c0,0,8.9-0.7,20.5-1.6c11.9-0.9,20.5-5,20.5-5L515.9,570.2z"/>
	<path id="lot48" class="lot" d="M558.3,572.4c-1.9-6-3.3-12.2-3.3-12.2l-39.1,9.9l5.8,34l38.7-15.4l2.2-5.2 C562.6,583.5,560.2,578.5,558.3,572.4"/>
	<path id="lot49" class="lot" d="M553.6,548.6c-0.4-9.5-0.3-19.8-0.3-19.8l-39.4,2.5l2,38.9l39.1-9.9 C555,560.2,553.9,554.8,553.6,548.6"/>
	<polygon id="lot50" class="lot" points="516.5,492.3 513.9,531.3 553.3,528.8 553.3,490.1"/>
	<polygon id="lot51" class="lot" points="549.1,448 516.8,448.1 516.5,492.3 553.3,490.1 553.3,452.8"/>
	<polygon id="lot52" class="lot" points="570.2,448.1 566,452.9 566,481.3 617.1,479.2 617.2,448.1"/>
	<polygon id="lot53" class="lot" points="566,481.3 566,509.2 613.5,509.3 617.1,479.2"/>
	<path id="lot54" class="lot" d="M613.5,509.3l-47.5-0.1c0,0-0.1,23.6-0.1,34c0,2.9,0.3,4.8,0.3,4.8l48.7-11L613.5,509.3z"/>
	<path id="lot55" class="lot" d="M614.1,563.1l0.7-26l-48.7,11c0,0,0.2,5.3,1.7,12c2.1,9.3,6.9,20,6.9,20l5,2.6l36.8-8.1 L614.1,563.1z"/>
	<path id="lot56" class="lot" d="M665.5,538l-50.8-0.9l-0.7,26.2l2.4,11.4l26.2-5.5c0,0,10.9-2,18.1-11.8 C665.8,550.3,665.5,538,665.5,538"/>
	<polygon id="lot57" class="lot" points="613.5,509.3 614.8,537.1 665.5,538 666.7,507.5"/>
	<polygon id="lot58" class="lot" points="617.1,479.2 613.5,509.3 666.7,507.5 667.7,478.3"/>
	<polygon id="lot59" class="lot" points="664.5,448.1 617.2,448.1 617.1,479.2 667.9,478.3 668.8,453.1"/>
	<polygon id="lot60" class="lot" points="220.5,371.8 219.5,406.4 265.1,406.2 265.8,375.8 261.8,371.8"/>
	<polygon id="lot61" class="lot" points="219.5,406.4 218.7,435.2 260.5,435.5 264.6,431.4 265.1,406.2"/>
	<polygon id="lot62" class="lot" points="322.5,404 280.2,404 279.4,432 281.5,435.4 322.8,435.3"/>
	<polygon id="lot63" class="lot" points="322.5,404 322.8,435.3 365.5,435.4 365.5,404.1"/>
	<polygon id="lot64" class="lot" points="409,404.3 365.5,404.1 365.3,435.4 409.1,435.4"/>
	<polygon id="lot65" class="lot" points="452.4,404.4 409,404.3 409.1,435.4 452.6,435.4"/>
	<polygon id="lot66" class="lot" points="495.2,404.5 452.4,404.4 452.6,435.4 495.3,435.3"/>
	<polygon id="lot67" class="lot" points="495.2,404.5 495.3,435.3 537.2,435.4 537.3,404.7"/>
	<polygon id="lot68" class="lot" points="537.3,404.7 537.2,435.4 578.3,435.4 578.3,404.8"/>
	<polygon id="lot69" class="lot" points="280.8,375.3 280.2,404 365.4,404.2 365.5,372.3 283.9,372.4"/>
	<polygon id="lot70" class="lot" points="365.5,372.3 365.4,404.1 409,404.3 408.9,372.4"/>
	<polygon id="lot71" class="lot" points="408.9,372.4 409,404.3 452.4,404.4 452.4,372.3"/>
	<polygon id="lot72" class="lot" points="452.4,372.4 452.4,404.4 495.2,404.5 495,372.3"/>
	<polygon id="lot73" class="lot" points="494.9,372.4 495.2,404.6 578.2,404.8 578.2,372.3"/>
	<polygon id="lot74" class="lot" points="578.3,435.4 620.1,435.4 619.8,372.3 578.2,372.3"/>
	<polygon id="lot75" class="lot" points="620.1,435.3 664.3,435.4 664.2,391.9 645.1,372.4 619.8,372.4"/>
	<polygon id="lot76" class="lot" points="153.4,91.2 171.7,72.8 235.1,74.6 234.9,84.3 245,94.9 239.5,100.1 239.3,108.3 168,106.4"/>
	<path id="lot77" class="lot" d="M234.9,84.3L237.3,2l21.8,0.7l9.1,0l0,31.9l-8,8.2l-0.3,16.3l9.3,9.7c0,0,0.3,0.4,0.5,0.9 c0.2,0.5,0.1,0.9,0.1,0.9l-0.4,19.3c0,0,0,0.7-0.2,1.3c-0.2,0.6-0.7,1-0.7,1l-6.6,6.3c0,0-0.7,0.9-2.8,0.8c-2,0-2.7-0.8-2.7-0.8 l-7.2-7.5l-4,3.9L234.9,84.3z"/>
	<polygon id="lot78" class="lot" points="180.3,126.9 179.3,156.5 223.5,158 224.9,122.6 186.1,121.6"/>
	<polygon id="lot79" class="lot" points="223.5,157.9 179.3,156.5 166.2,171.3 207.2,208.3"/>
	<polygon id="lot80" class="lot" points="207.2,208.3 266.1,209.6 266.9,184 215.5,182.6"/>
	<polygon id="lot81" class="lot" points="223.5,157.9 215.5,182.6 266.9,184 267.6,158.8"/>
	<!-- <polygon id="lot82" class="lot" points="224.9,122.7 223.5,157.9 267.6,158.8 268.2,137 260.1,123.7"/> -->
	<path id="lot82a" class="lot" d="M 246.57094,123.31565 224.9,122.7 l -1.4,35.2 21.81794,0.44526 z"/>
	<path id="lot82" class="lot" d="M 245.31794,158.34526 267.6,158.8 l 0.6,-21.8 -8.1,-13.3 -13.52906,-0.38435 z"/>
	<path id="lot83" class="lot" d="M202.2,319l-0.6,39c0,0,2.2,0.4,4.4,0.7c2.4,0.3,4.7,0.3,4.7,0.3h24.9l0.2-22.1h-0.8l0.4-19.1 L202.2,319z"/>
	<polygon id="lot84" class="lot" points="235.6,359.1 262.4,359.1 266.4,355 267.3,314.6 235.5,316.9 235.1,337 235.9,337"/>
	<polygon id="lot85" class="lot" points="267.3,314.7 268.1,277.9 262.9,272.9 236.4,273.8 235.6,316.9"/>
	<polygon id="lot86" class="lot" points="236.4,273.9 204.8,274.8 202.1,319.1 235.6,317.9"/>
	<polygon id="lot87" class="lot" points="206.4,262.4 236.4,261.4 234.7,215.8 204.6,215.2"/>
	<polygon id="lot88" class="lot" points="236.4,261.4 265.5,260.4 268.7,257.7 269.6,216.6 234.7,215.8"/>
	<polygon id="lot89" class="lot" points="282.6,298.2 281.2,356.3 283.9,359.1 327.5,359.1 327.5,299.2"/>
	<polygon id="lot90" class="lot" points="327.6,359 362.5,359 362.6,300 327.5,299.2"/>
	<polygon id="lot91" class="lot" points="362.5,359 397.9,359.1 398.2,300.8 362.6,300"/>
	<polygon id="lot92" class="lot" points="398,359.1 430.2,359.1 430.3,302.7 425.1,301.4 398.2,300.8"/>
	<path id="lot93" class="lot" d="M430.2,359.1h37l3.7-3.8l-0.1-22.1c0,0,0.2-5.5,0.8-11c0.5-4.4,1.3-8.9,1.3-8.9l-42.6-10.4 L430.2,359.1z"/>
	<polygon id="lot94" class="lot" points="484.9,315.9 483.3,325.9 483.2,356.7 485.5,359.4 530.2,359.3 530.1,321.2 493.8,318"/>
	<polygon id="lot95" class="lot" points="530.1,321.3 530.2,359.2 571.9,359.3 571.8,323.6"/>
	<polygon id="lot96" class="lot" points="571.8,325.5 571.8,359.3 616,359.3 615.8,325.9"/>
	<polygon id="lot97" class="lot" points="615.9,326 616,359.3 660.7,359.3 660.6,326.3"/>
	<path id="lot98" class="lot" d="M606.7,254.4l-13,37.1c0,0,4,1.1,8,2.7c9.4,3.8,14.6,6.7,18.8,8c4,1.3,7.6,2.6,15.3,3.7 c12.5,1.7,25,1.9,25,1.9v-8.2l-26.7-28c0,0-3.2-3.7-7-6.6c-7.9-6-14.6-8.4-14.6-8.4L606.7,254.4z"/>
	<path id="lot99" class="lot" d="M542.3,232.1l-2,5.9l8.2,49.6c0,0,8.5-1.9,16.8-1.2c14.3,1.3,28,6.2,28,6.2l13.4-38.1 L542.3,232.1z"/>
	<path id="lot100" class="lot" d="M548.5,287.5l-8.1-49.6l2-5.8c0,0-7.8-2.8-16.3,0.4c-8.7,3.3-12.4,10.9-12.4,10.9l-22.6,51 c0,0-0.4,1.1-0.8,2.2c-0.4,1.1-0.8,2.1-0.8,2.1l7.8,2.7c0,0,8,1,14.6-0.3c8.6-1.7,15.7-4.2,23-8.2 C542.1,288.9,548.5,287.5,548.5,287.5z"/>
	<polygon id="lot101" class="lot" points="681.4,400.7 681.4,426.6 726.8,426.5 725.9,400.6"/>
	<polygon id="lot102" class="lot" points="681.4,374.9 681.4,400.6 725.9,400.6 724.9,374.8"/>
	<polygon id="lot103" class="lot" points="681.4,348.9 681.4,374.8 724.9,374.7 724.1,348.6"/>
	<polygon id="lot104" class="lot" points="681.4,322.9 681.4,348.9 724,348.7 723.2,323"/>
	<path id="lot105" class="lot" d="M678.2,303.5c0,0,1.3,3.2,2.1,6.4c1.1,4.8,1.1,6.6,1.1,6.6v6.4l41.7,0.1l-1.2-32.3l-5.7-6.1 L678.2,303.5z"/>
	<path id="lot106" class="lot" d="M662.5,283.6l10.4,11.1c0,0,1.5,1.6,3,4.2c1.6,3,2.4,4.6,2.4,4.6l38.2-18.8l-25.5-28.2 L662.5,283.6z"/>
	<polygon id="lot107" class="lot" points="662.5,283.6 691,256.5 671.2,234.5 642.9,262.9"/>
	<path id="lot108" class="lot" d="M642.9,262.8l28.4-28.2L649.8,211l-6.6-2.4l-20.6,39c0,0,6.1,3.2,11.3,7.2 C638.8,258.4,642.9,262.8,642.9,262.8z"/>
	<path id="lot109" class="lot" d="M622.6,247.6l20.7-39l-32.4-11.4l-14,40.9l19.7,6.9c0,0,1.2,0.5,3,1.3 C621.3,247,622.6,247.6,622.6,247.6z"/>
	<polygon id="lot110" class="lot" points="610.9,197.2 582.1,186.9 567.9,227.9 596.9,238"/>
	<path id="lot111" class="lot" d="M567.9,227.9l14.2-41l-30-10.7L540.3,219c0,0,1.8,0.3,3.5,0.8c2.3,0.6,4.6,1.4,4.6,1.4 L567.9,227.9z"/>
	<path id="lot112" class="lot" d="M540.3,219l11.9-42.8l-22.3-7.9l-14.3,29.1l7.2,23.3c1.8-0.6,4-1.2,6.8-1.7 C534.7,218.2,540.3,219,540.3,219z"/>
	<path id="lot113" class="lot" d="M518.4,222.5l-7.1-20l-35.2-5.2l-2.9,20.5l30.8,17.8c0,0,2.7-4.2,6.3-7.5 C513.9,224.8,518.4,222.5,518.4,222.5z"/>
	<path id="lot114" class="lot" d="M504,235.5l-56-32.3l-6.3,44.9l47.3,20.6l13.2-29.9c0,0,0.3-0.7,0.9-1.6 C503.5,236.3,504,235.5,504,235.5z"/>
	<path id="lot115" class="lot" d="M489,268.7l-47.2-20.5l-6.1,44.1l39.9,10c0,0,1.2-4.2,2.7-8.4c1.2-3.4,2.7-6.8,2.7-6.8 L489,268.7z"/>
	<polygon id="lot116" class="lot" points="448.4,190.4 439.6,181.9 439.6,179 384.9,180 385,202.8 443.1,201.9 443,195.5 443.6,195.5"/>
	<polygon id="lot117" class="lot" points="346.6,156.6 345.9,178.2 348.2,178.3 374.5,202.8 383.5,202.8 383.5,180 382.3,180 356.6,156.8"/>
	<polygon id="lot118" class="lot" points="344.9,156.5 293.5,155.2 292.7,177.2 344.2,178.2"/>
	<polygon id="lot119" class="lot" points="479.8,169.9 476.9,191.4 515.5,197.4 529.8,168.2"/>
	<polygon id="lot120" class="lot" points="448,203 473.3,217.8 479.8,169.9 452.4,170.8"/>
	<polygon id="lot121" class="lot" points="293.7,146.3 346,147.7 346.3,130.7 336,121.7 294.3,120.5"/>
	<polygon id="lot122" class="lot" points="286.4,103.4 325.6,103.9 327.3,65.5 324.3,59.2 325.1,35.5 319.4,35.3 314.2,26.8 288.1,25.5"/>
	<polygon id="lot123" class="lot" points="285.7,104.1 324.8,104.6 326.6,66.2 323.5,59.9 324.4,36.2 318.7,36 313.4,27.5 287.4,26.2 "/>
	<polygon id="lot124" class="lot" points="294.3,146.6 346.6,148 346.8,131 336.6,122.1 294.8,120.8"/>
	<polygon id="lot125" class="lot" points="156.2,164 165,154.3 166.1,153.1 167.4,105.8 153.4,91.2 142.3,102.1 126.4,137.3"/>
	<path id="lot126" class="lot" d="M174.2,259c0,0,4.4-3.3,10.7-1.8c4.9,1.2,8,5.6,8,5.6l13.5-0.4l-1.5-40.2l-39.5-4.3l-13.6,16.3 L174.2,259z"/>
	<polygon id="lot127" class="lot" points="161.5,176.5 142.7,197.3 165.3,217.9 204.8,222.2 204.6,215.1"/>
	<path id="lot128" class="lot" d="M142.7,197.4l-18.5,20.5c0,0-3.4,3.9-6.2,7.6s-5.4,7.7-5.4,7.7l25.1,17.8l27.6-33.1L142.7,197.4z"/>
	<path id="lot129" class="lot" d="M132,291l25,7.3l15.4-19.3c0,0-4.1-3.6-3.5-10.6c0.5-5.8,5.4-9.4,5.4-9.4l-22.6-24.8L138,250.8 l-5.4,32.1L132,291z"/>
	<path id="lot130" class="lot" d="M205,274.9l-10.7,0.3c0,0-4.2,6.3-9.4,7.4c-7.5,1.6-12.5-3.5-12.5-3.5L157,298.3l11,12.1l34.4,8.6 L205,274.9z"/>
	<path id="lot131" class="lot" d="M112.5,233.3c0,0-2.3,3.5-4.4,7.2c-3,5.4-5.7,11-5.7,11s-1.9,3.4-3,7.8c-1,4.1-1.3,7.6-1.3,7.6 l-0.1,15.7l34.3,0.5l5.4-32.1L112.5,233.3z"/>
	<path id="lot132" class="lot" d="M98.1,282.6l-0.3,40.4l4,4.4c0,0,7.7,0.8,15.5,1.9c3.9,0.5,7.9,1.3,7.9,1.3l6.7-39.9l0.4-7.7 L98.1,282.6z"/>
	<path id="lot133" class="lot" d="M125.4,330.4c0,0,5.1,1,10,2.7c9.9,3.4,19.5,7.5,19.5,7.5l0.9-0.3l12.2-30.1l-11.1-12L132,291 L125.4,330.4z"/>
	<path id="lot134" class="lot" d="M168,310.4l-12,29.7l6.3,2.5l-0.3,1.1l29.8,11.8c0,0,2.8,1,5.6,1.8c2.2,0.6,4.4,1,4.4,1l0.6-39 L168,310.4z"/>
	<path id="lot135" class="lot" d="M179.4,364v38.8l40.4,0.2l0.7-31.3c0,0-11.8,0.4-21-1.2C190.4,369,179.4,364,179.4,364z"/>
	<polygon id="lot136" class="lot" points="138.5,347.7 138.4,402.7 179.4,402.8 179.4,364"/>
	<path id="lot137" class="lot" d="M97.8,343.7l-0.4,59l40.9,0l0.1-55c0,0-6.8-3-14.1-4.6c-11-2.3-22.4-3.2-22.4-3.2L97.8,343.7z"/>
	<polygon id="lot138" class="lot" points="179.1,435.1 218.7,435.4 219.8,403.1 179.5,402.9"/>
	<polygon id="lot139" class="lot" points="138.3,402.7 138.2,434.9 179,435 179.4,402.8"/>
	<polygon id="lot140" class="lot" points="97.4,402.7 97.3,430.5 101.2,434.6 138.2,434.8 138.4,402.7"/>
	<path id="lot141" class="lot" d="M133.9,447.4l-0.1,33.4l33.6,12.2c0,0,1.9-5,7.8-7.5c4.7-1.9,11.2,0.3,11.2,0.3l0.1-38.1 L133.9,447.4z"/>
	<polygon id="lot142" class="lot" points="101.7,447.4 98.1,451.5 97.8,499 133.7,498.5 133.9,447.4"/>
	<path id="lot143" class="lot" d="M166.8,502.9c-1.1-4.8,0.7-9.9,0.7-9.9l-33.6-12.2l-0.1,17.7l2.9,32.3l27.7,11.8l12.7-30.2 C177,512.3,168.5,510.2,166.8,502.9"/>
	<path id="lot144" class="lot" d="M133.7,498.5L97.8,499c0,0,0.1,8.9,1,26.4c0.4,7.3,1.5,9.7,8.4,20.3c3,4.6,4.8,7.6,6.1,8.4 c5.8,3.2,9.9,5.4,9.9,5.4l13.2-28.6L133.7,498.5z"/>
	<polygon id="lot145" class="lot" points="177,512.3 164.3,542.6 211.6,562.2 221,522.5"/>
	<polygon id="lot146" class="lot" points="136.5,530.8 123.5,559.4 173.7,584.8 189.2,552.9"/>
	<polygon id="lot147" class="lot" points="175.5,599.7 154.2,641.6 187.8,660.8 209.9,617.1"/>
	<polygon id="lot148" class="lot" points="141,582.3 120.6,622.5 154.2,641.6 175.5,599.7"/>
	<path id="lot149" class="lot" d="M111.1,567.3c-2.7-1.4-4.1-2.2-4.1-2.2l-22.5,36.8l36.1,20.7l20.3-40.2 C140.8,582.3,120.3,572,111.1,567.3"/>
	<path id="lot150" class="lot" d="M101.2,559.6c-4.7-6.3-10.2-15.7-10.2-15.7l-43.6,21.1l23,28.9l14,8L107,565 C107,565,103.6,562.8,101.2,559.6"/>
	<path id="lot151" class="lot" d="M87.3,534c-1.6-7.7-1.6-15-1.6-15l-60.6,8.1l6.7,18.2l15.6,19.6L91,543.9 C91,543.9,88.3,538.6,87.3,534"/>
	<polygon id="lot152" class="lot" points="85.3,492.8 12.9,493.4 25.2,527.1 85.8,519"/>
	<polygon id="lot153" class="lot" points="81.5,447.3 45.9,447.2 45.8,493.1 85.3,492.8 85.5,451.4"/>
	<polygon id="lot154" class="lot" points="42.4,393 42.2,435 81.4,435.1 84.9,431.6 85,393.1"/>
	<polygon id="lot155" class="lot" points="42.4,381.2 4.5,375.7 2.8,401.7 3.8,434.8 42.1,435"/>
	<path id="lot156" class="lot" d="M85.3,343l-0.2,50.1L42.4,393l0-11.8l4.5-35.6c0,0,5.4,1.6,9.7-0.4c4.6-2.1,7-6.3,7-6.3h17.5 L85.3,343z"/>
	<path id="lot157" class="lot" d="M42.4,381.2l-37.9-5.5l0.4-7.3l9.7-39.5l23.2,3c0,0-0.4,4.5,2.2,8.6c2.5,3.9,6.8,5.2,6.8,5.2 L42.4,381.2z"/>
	<path id="lot158" class="lot" d="M37.9,331.8l-23.2-3l5.1-22.9l4.2-8.6l61.6,0.3l-0.2,24.4l-4.3,4.3l-18,0c0,0-2.1-3.4-4.7-4.8 c-2.3-1.3-6.7-2.9-11.4-1.2C38.2,323.4,37.9,331.8,37.9,331.8z"/>
	<polygon id="lot159" class="lot" points="24,297.4 39.2,265.9 85.7,266.5 85.5,297.6"/>
	<path id="lot160" class="lot" d="M39.3,265.9l22.7-46.8L94.8,171l30.1,27.3L110,215.2c0,0-4.7,5.6-10.2,14.7 c-3.3,5.4-6.8,12.1-10.1,19.2c-3.4,7.4-4,17.4-4,17.4L39.3,265.9z"/>
	<polygon id="lot161" class="lot" points="94.8,171 99.4,164 122.7,140.8 152.5,167.6 124.9,198.2"/>
	<polygon id="lot162" class="lot" points="45.8,493.1 12.9,493.4 5,447.2 45.9,447.2"/>
	<g id="pin" transform="translate(-100 -100)">
		<path fill="#fff" d="M13.91,0.55a13.91,13.91,0,0,1,13.91,13.9c0,9-7.06,19.7-13.1,22.39a2,2,0,0,1-1.63,0C7.06,34.14,0,23.44,0,14.45A13.91,13.91,0,0,1,13.91.55Z" transform="translate(0 -0.55)"/>
		<path fill="#ef0000" d="M2,14.45a11.91,11.91,0,0,1,23.82,0c0,9.45-7.76,18.71-11.91,20.56C9.76,33.16,2,23.9,2,14.45Zm11.91,8.2a8.07,8.07,0,0,0,0-16.13A8.07,8.07,0,0,0,13.91,22.65Z" transform="translate(0 -0.55)"/>
	</g>
</svg>
