<?xml version="1.0" encoding="UTF-8" standalone="no"?>
<svg width="273" height="377" viewBox="0 0 273 377" version="1.1" xmlns="http://www.w3.org/2000/svg" xmlns:xlink="http://www.w3.org/1999/xlink">
  <defs>
    <style>
      .lot {
        stroke: none;
        fill: none;
      }
      .th-on-sale {
        stroke-linecap: round;
        stroke-linejoin: round;
        stroke-width: 2.5;
        fill-opacity: .5;
      }
      .th-on-sale {
        fill: #4892b3;
        stroke: #03fff4;
        cursor: pointer;
      }
      .th-on-sale:hover {
        stroke: #ef0000;
      }
      .th-on-sale.selected {
        stroke: #ef0000;
        fill: #b8973b;
      }
    </style>
  </defs>

  <path class="lot" id="th2_01" d="m 9.9649252,42.349464 45.9925678,0 c 0.09055,0 0.163445,0.0729 0.163445,0.163445 l 0,187.114851 c 0,0.0906 -0.0729,0.16345 -0.163445,0.16345 0,0 -45.805663,-40.75414 -45.546122,-40.52404 L 9.8014803,42.512909 c -3.763e-4,-0.09055 0.072896,-0.163445 0.1634449,-0.163445 z"/>
  <path class="lot" id="th2_02" d="m 60.372536,86.222755 46.805334,0 c 0.0906,0 0.16344,0.0729 0.16344,0.163445 l 0,188.65121 c 0,0.0905 -0.0958,0.22363 -0.16344,0.16345 l -48.002682,-42.7019 c -0.06766,-0.0602 0.408924,0.45342 0.40931,0.36287 L 60.209091,86.3862 c 3.86e-4,-0.09055 0.0729,-0.163445 0.163445,-0.163445 z"/>
  <path class="lot" id="th2_03" d="m 110.78015,131.02953 47.38641,0 c 0.0906,0 0.16345,0.0729 0.16345,0.16344 l 0,189.04871 c 0,0.0905 -0.0729,0.16344 -0.16345,0.16344 0,0 -47.97589,-43.40618 -47.97801,-42.68003 l 0.42816,-146.53212 c 2.6e-4,-0.0906 0.0729,-0.16344 0.16344,-0.16344 z"/>
  <path class="lot" id="th2_04" d="m 161.6545,174.90282 46.51471,0 c 0.0906,0 0.16344,0.0729 0.16344,0.16344 l 0,189.50549 c 0,0.0906 -0.0729,0.16345 -0.16344,0.16345 -0.26545,-0.38024 -46.50391,-41.37315 -46.50391,-41.37315 l -0.17425,-148.29579 c -1.1e-4,-0.0906 0.0729,-0.16344 0.16344,-0.16344 z"/>
  <rect class="lot" id="th2_05" width="46.113083" height="147.90948" x="211.99255" y="219.24286"/>
</svg>
