<?xml version="1.0" encoding="UTF-8" standalone="no"?>
<svg width="32px" height="32px" viewBox="0 0 32 32" version="1.1" xmlns="http://www.w3.org/2000/svg" xmlns:xlink="http://www.w3.org/1999/xlink">
    <title>ic_faq</title>
    <path fill="#fff" d="M17.8513313,20.4969225 L17.8513313,19.7678703 C17.8513313,18.1415231 18.2438979,17.6648351 19.7020023,16.3749735 C21.4405114,14.8607882 22.5060492,13.7952504 22.5060492,11.4118105 C22.5060492,7.87871142 19.7580832,6 16.5334293,6 C13.0844516,6 10.420607,8.10303518 10,11.6641747 L13.4489777,11.9726199 C13.5050586,10.4584346 14.5705964,9.05641112 16.3091055,9.05641112 C17.9634932,9.05641112 18.9449096,10.1780299 18.9449096,11.6361343 C18.9449096,12.757753 18.3560598,13.4868052 17.655048,14.131736 L16.3932269,15.3374762 C14.9912035,16.6834187 14.542556,17.6367946 14.542556,19.4313847 L14.542556,20.4969225 L17.8513313,20.4969225 Z M13.9817466,24.3945477 C13.9817466,25.6002878 15.0472844,26.5256233 16.2249841,26.5256233 C17.4587648,26.5256233 18.4682216,25.5442069 18.4682216,24.3384667 C18.4682216,23.1327266 17.4307243,22.2073911 16.2249841,22.2073911 C14.9912035,22.2073911 13.9817466,23.1888075 13.9817466,24.3945477 L13.9817466,24.3945477 Z"/>
</svg>
