<svg width="174" height="56" xmlns="http://www.w3.org/2000/svg"><g fill="none" fill-rule="evenodd"><rect fill="#000" width="174" height="56" rx="28"/><path d="M69.656 37.023h2.437l-5.335-14.762h-2.467l-5.335 14.762h2.355l1.362-3.918h5.632l1.351 3.918zm-4.25-12.082h.175l2.14 6.24h-4.465l2.15-6.24zm13.15.757c-1.516 0-2.827.757-3.503 2.026h-.164v-1.841h-2.12v14.751h2.202v-5.299h.174c.584 1.177 1.844 1.872 3.43 1.872 2.817 0 4.609-2.22 4.609-5.76 0-3.539-1.792-5.749-4.629-5.749zm-.625 9.535c-1.843 0-3-1.453-3-3.775 0-2.332 1.157-3.785 3.01-3.785 1.864 0 2.98 1.422 2.98 3.775 0 2.363-1.116 3.785-2.99 3.785zm12.042-9.535c-1.515 0-2.826.757-3.502 2.026h-.164v-1.841h-2.12v14.751h2.202v-5.299h.174c.584 1.177 1.844 1.872 3.43 1.872 2.817 0 4.609-2.22 4.609-5.76 0-3.539-1.792-5.749-4.629-5.749zm-.624 9.535c-1.843 0-3-1.453-3-3.775 0-2.332 1.157-3.785 3.01-3.785 1.864 0 2.98 1.422 2.98 3.775 0 2.363-1.116 3.785-2.99 3.785zm9.913-2.18c.164 2.64 2.365 4.328 5.642 4.328 3.502 0 5.693-1.77 5.693-4.593 0-2.22-1.249-3.448-4.28-4.153l-1.628-.4c-1.925-.45-2.703-1.053-2.703-2.107 0-1.33 1.208-2.2 3.02-2.2 1.72 0 2.909.85 3.124 2.21h2.232c-.133-2.486-2.324-4.235-5.325-4.235-3.225 0-5.376 1.75-5.376 4.379 0 2.168 1.219 3.457 3.892 4.081l1.904.46c1.956.461 2.816 1.136 2.816 2.262 0 1.31-1.352 2.26-3.195 2.26-1.976 0-3.348-.89-3.543-2.291h-2.273zm13.23-9.871v2.752h-1.832v1.851h1.832v6.292c0 2.148.973 3.008 3.42 3.008.43 0 .83-.052 1.178-.113v-1.831c-.307.03-.481.051-.82.051-1.095 0-1.576-.511-1.576-1.678v-5.729h2.499v-1.851h-2.499v-2.752h-2.202zm10.159 12.102c-1.915 0-2.99-1.401-2.99-3.836 0-2.415 1.075-3.826 2.99-3.826 1.905 0 2.99 1.411 2.99 3.826 0 2.424-1.085 3.836-2.99 3.836zm0 1.954c3.256 0 5.253-2.179 5.253-5.79 0-3.591-2.007-5.78-5.253-5.78-3.256 0-5.263 2.189-5.263 5.78 0 3.611 1.996 5.79 5.263 5.79zm6.257-.215h2.202v-6.578c0-1.565 1.177-2.619 2.836-2.619.369 0 1.045.072 1.219.133v-2.168c-.236-.062-.656-.093-.973-.093-1.454 0-2.683.798-3 1.893h-.164v-1.708h-2.12v11.14zm11.213-9.483c1.628 0 2.693 1.135 2.745 2.885h-5.632c.123-1.74 1.26-2.885 2.887-2.885zm2.734 6.476c-.41.87-1.32 1.35-2.652 1.35-1.761 0-2.898-1.238-2.97-3.192v-.123h7.875v-.767c0-3.499-1.874-5.616-4.976-5.616-3.144 0-5.14 2.26-5.14 5.82 0 3.56 1.955 5.75 5.15 5.75 2.55 0 4.331-1.228 4.833-3.222h-2.12zM61.019 10.738v7.03h2.54c2.097 0 3.311-1.291 3.311-3.537 0-2.211-1.224-3.493-3.31-3.493h-2.541zm1.092.994h1.326c1.458 0 2.321.926 2.321 2.514 0 1.612-.848 2.528-2.32 2.528H62.11v-5.042zm8.603 5.208c-.912 0-1.424-.668-1.424-1.827 0-1.15.512-1.822 1.424-1.822.907 0 1.423.672 1.423 1.822 0 1.155-.516 1.827-1.423 1.827zm0 .93c1.55 0 2.501-1.037 2.501-2.757 0-1.71-.956-2.752-2.501-2.752-1.551 0-2.507 1.042-2.507 2.752 0 1.72.951 2.757 2.507 2.757zm10.718-5.407h-1.048l-.946 4.048h-.083l-1.092-4.048h-1.005l-1.092 4.048h-.078l-.95-4.048h-1.064l1.463 5.305h1.078l1.092-3.907h.083l1.097 3.907h1.087l1.458-5.305zm1.332 5.305h1.049v-3.103c0-.828.517-1.345 1.36-1.345.78 0 1.16.424 1.16 1.277v3.171h1.049v-3.434c0-1.262-.668-1.973-1.853-1.973-.8 0-1.419.355-1.677.945h-.078v-.843h-1.01v5.305zm6.389 0h1.048v-7.375h-1.048v7.375zm5.111-.828c-.912 0-1.424-.668-1.424-1.827 0-1.15.512-1.822 1.424-1.822.907 0 1.424.672 1.424 1.822 0 1.155-.517 1.827-1.424 1.827zm0 .93c1.55 0 2.502-1.037 2.502-2.757 0-1.71-.956-2.752-2.502-2.752-1.55 0-2.506 1.042-2.506 2.752 0 1.72.95 2.757 2.506 2.757zm5.745-.896c-.57 0-.985-.278-.985-.755 0-.468.332-.716 1.063-.765l1.297-.083v.444c0 .657-.585 1.159-1.375 1.159zm-.268.882c.697 0 1.277-.302 1.594-.833h.083v.745h1.01v-3.624c0-1.12-.751-1.783-2.082-1.783-1.205 0-2.063.584-2.17 1.495h1.014c.117-.375.522-.59 1.107-.59.717 0 1.087.317 1.087.878v.458l-1.438.082c-1.263.078-1.975.629-1.975 1.584 0 .969.746 1.588 1.77 1.588zm6.37 0c.73 0 1.35-.346 1.667-.926h.083v.838h1.004v-7.375h-1.048v2.913h-.078c-.288-.585-.902-.93-1.629-.93-1.34 0-2.204 1.061-2.204 2.737 0 1.68.853 2.743 2.204 2.743zm.297-4.54c.877 0 1.428.696 1.428 1.802 0 1.11-.546 1.797-1.428 1.797-.888 0-1.42-.677-1.42-1.802 0-1.116.537-1.798 1.42-1.798zm9.5 3.624c-.912 0-1.424-.668-1.424-1.827 0-1.15.512-1.822 1.424-1.822.907 0 1.424.672 1.424 1.822 0 1.155-.517 1.827-1.424 1.827zm0 .93c1.55 0 2.502-1.037 2.502-2.757 0-1.71-.956-2.752-2.502-2.752-1.55 0-2.506 1.042-2.506 2.752 0 1.72.95 2.757 2.506 2.757zm4.01-.102h1.048v-3.103c0-.828.516-1.345 1.36-1.345.78 0 1.16.424 1.16 1.277v3.171h1.049v-3.434c0-1.262-.668-1.973-1.853-1.973-.8 0-1.419.355-1.677.945h-.078v-.843h-1.01v5.305zm9.69-6.591v1.31h-.873v.882h.873v2.996c0 1.023.463 1.432 1.629 1.432.204 0 .395-.024.56-.053v-.872c-.146.014-.229.024-.39.024-.522 0-.75-.244-.75-.799V13.37h1.189v-.882h-1.19v-1.31h-1.048zm3.731 6.591h1.048V14.67c0-.804.532-1.345 1.39-1.345.79 0 1.185.429 1.185 1.277v3.166h1.048v-3.425c0-1.261-.682-1.977-1.877-1.977-.8 0-1.414.355-1.672.95h-.083v-2.923h-1.039v7.375zm8.578-4.516c.775 0 1.283.54 1.307 1.374h-2.682c.059-.828.6-1.374 1.375-1.374zm1.302 3.084c-.195.414-.629.643-1.263.643-.839 0-1.38-.59-1.414-1.52V15.4h3.75v-.365c0-1.666-.893-2.674-2.37-2.674-1.497 0-2.448 1.076-2.448 2.772 0 1.695.932 2.737 2.453 2.737 1.214 0 2.062-.584 2.301-1.534h-1.009zM46.29 25.705c-.033-3.568 2.924-5.304 3.06-5.385-1.675-2.44-4.27-2.772-5.183-2.799-2.18-.229-4.294 1.303-5.404 1.303-1.133 0-2.843-1.28-4.685-1.243-2.372.036-4.59 1.408-5.807 3.538-2.511 4.343-.639 10.726 1.767 14.237 1.204 1.72 2.61 3.639 4.45 3.571 1.801-.073 2.474-1.147 4.647-1.147 2.153 0 2.785 1.147 4.662 1.103 1.933-.029 3.15-1.726 4.311-3.462 1.39-1.968 1.95-3.911 1.971-4.011-.044-.014-3.752-1.428-3.79-5.705m-3.546-10.493c.969-1.21 1.632-2.857 1.448-4.527-1.402.062-3.155.968-4.165 2.152-.893 1.043-1.69 2.752-1.485 4.36 1.575.117 3.192-.794 4.202-1.985" fill="#FFF"/></g></svg>