<svg width="174" height="56" xmlns="http://www.w3.org/2000/svg"><defs><linearGradient x1="50%" y1="0%" x2="50%" y2="38.913%" id="a"><stop stop-color="#FBDA09" offset="0%"/><stop stop-color="#FFBC00" offset="100%"/></linearGradient><linearGradient x1="20.281%" y1="20.102%" x2="83.82%" y2="83.621%" id="b"><stop stop-color="#28D781" offset="0%"/><stop stop-color="#02F076" offset="100%"/></linearGradient><linearGradient x1="0%" y1="58.476%" x2="69.306%" y2="39.083%" id="c"><stop stop-color="#01E2FF" offset="0%"/><stop stop-color="#01C4FF" offset="100%"/></linearGradient><linearGradient x1="74.488%" y1="17.43%" x2="10.108%" y2="91.184%" id="d"><stop stop-color="#F2414E" offset="0%"/><stop stop-color="#E02554" offset="100%"/></linearGradient></defs><g fill="none" fill-rule="evenodd"><rect fill="#000" width="174" height="56" rx="28"/><path d="M120.027 20.5h5.68s3.27.555 3.27 4.303c0 3.748-3.27 4.303-3.27 4.303h-5.68V20.5zm1.102 2.082h3.856s1.755 0 1.755 2.309-1.755 2.309-1.755 2.309h-3.856v-4.618zm9.018-2.082h2.004v14h-2.004zm9.433 12.999v.997h2.003v-6.089c0-.808-.593-3.207-4.078-3.207-2.803 0-3.737 1.922-3.737 1.922l1.67.984s.402-.984 2.227-.984c1.328 0 1.771 1 1.914 1.546v.41c-.582-.281-1.842-.726-3.64-.46-2.54.378-2.383 2.75-2.383 2.945 0 .196.002 3.104 3.195 2.905 1.394-.087 2.276-.514 2.828-.969zm-.144-2.999s-3.86-1.038-3.995 1.126c-.134 2.165 3.704 1.126 4.047-.409 0-.488-.052-.717-.052-.717zm5.908 3.469l-1.87 4.431h2.004l5.422-12.852h-2.004l-2.55 6.046-2.571-6.094h-2.004zm-30.304-5.196s-.88-3.573-4.24-3.573c-3.359 0-4.5 3.02-4.5 4.803 0 1.85 1.438 4.7 4.704 4.7 2.657 0 3.955-2.094 3.955-2.094l-1.608-1.087s-.843 1.328-2.335 1.32c-1.905-.01-2.315-1.455-2.315-1.455l6.338-2.614zm-2.412-.741s-.798-1.21-2.02-.988c-2.588.473-2.262 2.732-2.262 2.732l4.282-1.744zm-9.335-7.532h2.12v13.971h-2.12zM99.9 25.504v.871s-.852-1.223-2.624-1.174c-2.213.063-4.504 1.77-4.504 4.754 0 2.984 2.433 4.735 4.48 4.735 1.888 0 2.649-1.188 2.649-1.188v.957c0 .683-.257 2.678-2.454 2.678-1.93 0-2.478-1.724-2.478-1.724l-1.8.755s1.021 2.797 4.184 2.797c3.164 0 4.507-2.377 4.507-4.63v-8.814l-1.96-.017zm-2.48 7.394c1.429 0 2.587-1.306 2.587-2.918s-1.158-2.918-2.588-2.918c-1.429 0-2.587 1.306-2.587 2.918s1.158 2.918 2.587 2.918zM87.121 34.7c2.635 0 4.77-2.127 4.77-4.75s-2.135-4.75-4.77-4.75c-2.634 0-4.77 2.127-4.77 4.75s2.136 4.75 4.77 4.75zm-.03-1.863c1.48 0 2.68-1.292 2.68-2.887s-1.2-2.887-2.68-2.887c-1.482 0-2.682 1.292-2.682 2.887s1.2 2.887 2.681 2.887zM76.8 34.7c2.635 0 4.77-2.127 4.77-4.75s-2.135-4.75-4.77-4.75c-2.634 0-4.77 2.127-4.77 4.75s2.136 4.75 4.77 4.75zm-.03-1.863c1.48 0 2.68-1.292 2.68-2.887s-1.2-2.887-2.68-2.887c-1.481 0-2.682 1.292-2.682 2.887s1.2 2.887 2.681 2.887zm-7.393-4.144c-.459 2.698-2.37 3.974-4.925 3.974-2.945 0-5.332-2.377-5.332-5.31 0-2.931 2.387-5.308 5.332-5.308 1.473 0 2.75.502 3.648 1.417l1.442-1.435C68.316 20.742 66.522 20 64.389 20 60.31 20 57 23.294 57 27.358c0 4.063 3.308 7.352 7.39 7.358 4.149.037 7.61-2.877 6.917-7.936v-.074h-6.824v1.987h4.894z" fill="#FFF"/><path d="M11.162 3.567c.86-1.51 2.257-1.505 3.115 0l12.245 21.485c.86 1.509.137 2.732-1.586 2.732H.503c-1.735 0-2.443-1.228-1.585-2.732L11.162 3.567z" fill="url(#a)" transform="rotate(90 18.72 34.11)"/><path d="M.47 1.455C.956.853 1.81.757 2.778 1.31l15.945 9.087-4.718 4.492L.47 1.455z" fill="url(#b)" transform="translate(25 13)"/><path d="M.427 28.707c-.242-.331-.382-.798-.382-1.38V2.895c0-.618.156-1.106.425-1.44l13.537 13.429L.427 28.707z" fill="url(#c)" transform="translate(25 13)"/><path d="M18.848 19.754l-16.07 9.159c-1.022.582-1.913.439-2.382-.25l13.612-13.778 4.84 4.869z" fill="url(#d)" transform="translate(25 13)"/><path d="M56.952 16h.846l.384-.972h1.842l.396.972h.864l-1.83-4.248H58.8L56.952 16zm1.488-1.62l.666-1.728.654 1.728h-1.32zM61.704 16h.756v-3.282h.012L64.488 16h.96v-4.248h-.756v3.18h-.012l-1.974-3.18h-1.002V16zm4.68 0h1.506c1.11 0 2.346-.636 2.346-2.124 0-1.596-1.236-2.124-2.346-2.124h-1.506V16zm.756-.66V12.4h.63c.78 0 1.656.258 1.656 1.476 0 1.146-.876 1.464-1.656 1.464h-.63zm3.828.66h.756v-1.8h.552l.984 1.8h.912l-1.134-1.884c.594-.132.972-.534.972-1.146 0-.9-.768-1.218-1.566-1.218h-1.476V16zm.756-2.418v-1.194h.684c.39 0 .846.114.846.576 0 .516-.486.618-.912.618h-.618zm2.814.282c0 1.326.966 2.244 2.274 2.244 1.326 0 2.292-.918 2.292-2.244 0-1.362-.966-2.22-2.292-2.22-1.308 0-2.274.858-2.274 2.22zm.822 0c0-.876.582-1.554 1.458-1.554.882 0 1.464.678 1.464 1.554 0 .906-.594 1.566-1.464 1.566-.864 0-1.458-.66-1.458-1.566zM79.836 16h.756v-4.248h-.756V16zm1.692 0h1.506c1.11 0 2.346-.636 2.346-2.124 0-1.596-1.236-2.124-2.346-2.124h-1.506V16zm.756-.66V12.4h.63c.78 0 1.656.258 1.656 1.476 0 1.146-.876 1.464-1.656 1.464h-.63zm4.812.66h.846l.384-.972h1.842l.396.972h.864l-1.83-4.248h-.654L87.096 16zm1.488-1.62l.666-1.728.654 1.728h-1.32zM91.848 16h.756v-1.758h.582c.9 0 1.65-.324 1.65-1.26 0-.888-.63-1.23-1.602-1.23h-1.386V16zm.756-2.394v-1.218h.552c.468 0 .918.09.918.594s-.45.624-.942.624h-.528zM95.508 16h.756v-1.758h.582c.9 0 1.65-.324 1.65-1.26 0-.888-.63-1.23-1.602-1.23h-1.386V16zm.756-2.394v-1.218h.552c.468 0 .918.09.918.594s-.45.624-.942.624h-.528zm4.2.258c0 1.326.966 2.244 2.274 2.244 1.326 0 2.292-.918 2.292-2.244 0-1.362-.966-2.22-2.292-2.22-1.308 0-2.274.858-2.274 2.22zm.822 0c0-.876.582-1.554 1.458-1.554.882 0 1.464.678 1.464 1.554 0 .906-.594 1.566-1.464 1.566-.864 0-1.458-.66-1.458-1.566zM105.762 16h.756v-3.282h.012L108.546 16h.96v-4.248h-.756v3.18h-.012l-1.974-3.18h-1.002V16zm13.764 4.5h2.004v14h-2.004v-14" fill="#FFF"/><rect fill="#000" opacity=".24" width="174" height="56" rx="28"/></g></svg>