<svg width="155" height="29" xmlns="http://www.w3.org/2000/svg"><path d="M69.458 27.358c.096-.106.216-.216.359-.328.142-.113.296-.23.46-.354.166-.125.32-.26.462-.406a2.1 2.1 0 0 0 .354-.483c.094-.175.141-.372.141-.593 0-.165-.032-.325-.096-.481a1.182 1.182 0 0 0-.292-.416 1.462 1.462 0 0 0-.49-.296 1.919 1.919 0 0 0-.695-.114c-.226 0-.43.025-.612.076a1.95 1.95 0 0 0-.483.205 1.847 1.847 0 0 0-.61.61l.775.534a5.35 5.35 0 0 1 .122-.164.9.9 0 0 1 .398-.296.78.78 0 0 1 .292-.051c.217 0 .372.051.465.153a.48.48 0 0 1 .14.329c0 .122-.05.24-.15.354a2.8 2.8 0 0 1-.38.351c-.153.12-.32.246-.5.381-.179.133-.345.28-.497.441-.153.16-.28.34-.38.534a1.409 1.409 0 0 0-.152.658v.62h3.167v-.934h-1.941c0-.113.047-.222.143-.33m6.348-.481c-.027.18-.07.336-.132.47a.844.844 0 0 1-.237.319.524.524 0 0 1-.342.116.536.536 0 0 1-.351-.116.854.854 0 0 1-.237-.318 1.725 1.725 0 0 1-.132-.471 3.865 3.865 0 0 1-.041-.585c0-.205.013-.396.04-.57a1.6 1.6 0 0 1 .133-.457c.062-.13.14-.23.237-.304a.545.545 0 0 1 .343-.109c.133 0 .247.036.343.11a.811.811 0 0 1 .236.303c.062.128.107.28.137.456a3.932 3.932 0 0 1 .004 1.155zm.673-2.324a1.554 1.554 0 0 0-.573-.49 1.78 1.78 0 0 0-.811-.176c-.305 0-.573.059-.802.175-.229.117-.42.28-.575.49-.155.21-.271.463-.347.76a3.922 3.922 0 0 0-.114.98c0 .36.037.692.114.994.076.302.192.56.347.774.155.214.345.381.572.501.226.12.492.179.797.179.314 0 .587-.06.815-.179.23-.12.42-.287.573-.5a2.26 2.26 0 0 0 .34-.775c.073-.302.11-.634.11-.994a4.05 4.05 0 0 0-.11-.98 2.2 2.2 0 0 0-.336-.76zm4.679 2.324a1.69 1.69 0 0 1-.133.47.848.848 0 0 1-.236.319.525.525 0 0 1-.343.116.536.536 0 0 1-.35-.116.848.848 0 0 1-.236-.318 1.724 1.724 0 0 1-.133-.471 3.867 3.867 0 0 1-.041-.585c0-.205.013-.396.04-.57a1.6 1.6 0 0 1 .134-.457.8.8 0 0 1 .235-.304.545.545 0 0 1 .344-.109c.133 0 .247.036.343.11a.81.81 0 0 1 .236.303c.062.128.107.28.137.456a4.005 4.005 0 0 1 .004 1.155zm.672-2.324a1.556 1.556 0 0 0-.572-.49 1.783 1.783 0 0 0-.812-.176 1.75 1.75 0 0 0-.801.175 1.63 1.63 0 0 0-.576.49c-.155.21-.27.463-.347.76a3.947 3.947 0 0 0-.114.98c0 .36.038.692.114.994.077.302.192.56.347.774.156.214.346.381.572.501.227.12.492.179.798.179.314 0 .586-.06.815-.179.229-.12.42-.287.572-.5.153-.215.266-.473.34-.775a4.18 4.18 0 0 0 .11-.994c0-.356-.036-.682-.11-.98a2.21 2.21 0 0 0-.336-.76zm2.329.401h2.052c-.109.17-.236.401-.384.69-.148.29-.298.606-.45.947-.153.342-.3.69-.443 1.046-.143.356-.261.684-.355.986h1.115c.084-.283.187-.59.31-.92.123-.332.255-.663.395-.995.14-.33.288-.653.442-.965.155-.312.307-.591.454-.84v-.885H84.16v.936M11.561 14.348c-.748.518-1.65.743-2.631.743-1.703 0-3.072-.72-4.052-1.913-1.032-1.26-1.677-3.016-1.677-5.402 0-2.814.955-4.593 2.451-5.561.775-.54 1.73-.743 2.736-.743 1.419 0 2.606.473 3.535 1.418 1.187 1.238 1.961 3.062 1.961 5.583 0 2.994-.877 4.885-2.323 5.875zM8.44.662c-1.78 0-3.483.518-4.877 1.463C1.679 3.408.44 5.547.44 8.293c0 2.386 1.006 4.434 2.658 5.785 1.445 1.126 3.329 1.824 5.522 1.824 2.632 0 4.8-1.058 6.193-2.68 1.16-1.35 1.832-3.128 1.832-5.064 0-4.728-3.613-7.496-8.206-7.496zM26.165 14.82c-1.084 0-1.703-.224-1.987-.405-.309-.202-.387-.517-.387-1.102v-5.47h2.065c3.845 0 4.67 1.44 4.67 3.264 0 2.881-2.27 3.714-4.36 3.714zm4.8-7.113c-.955-.404-2.555-.63-4.67-.63H23.79V2.374c0-.338.078-.563.542-.563h3.587c.516 0 .877.045 1.316.293.671.405 1.574 1.643 2.168 2.836l.697-.18c-.258-1.486-.569-2.881-.594-3.894-.671.112-1.445.157-3.716.157h-8.825v.675c.542.023.98.09 1.367.158.8.135 1.059.563 1.059 1.216v10.421c0 .654-.258 1.104-.98 1.217-.44.067-.904.135-1.446.157v.675h7.2c1.96 0 3.612-.337 4.8-.99 1.521-.856 2.244-2.116 2.244-3.602 0-1.553-.8-2.588-2.245-3.242zM42.06 9.17c-.438 0-1.032-.022-1.264-.112-.104-.044-.181-.09-.181-.27V2.531c0-.316.052-.541.438-.653.31-.091.697-.136 1.446-.136 2.297 0 4.154.766 4.154 3.534 0 2.522-1.47 3.895-4.593 3.895zm4.825-7.517c-.954-.428-2.4-.631-4.283-.631H35.79v.675c1.65.136 2.425.158 2.425 1.374v10.421c0 1.17-.697 1.261-2.425 1.374v.675h7.483v-.675c-2.245-.135-2.658-.337-2.658-1.374V9.846c.49.045 1.007.068 1.445.068 2.013 0 4.051-.293 5.522-1.418 1.058-.789 1.703-1.846 1.703-3.4 0-1.463-.774-2.723-2.4-3.443zm7.509 7.743c.67-1.666 2.064-4.93 2.632-6.236l2.529 6.236h-5.161zm9.522 4.232c-.542-1.26-3.536-8.51-5.11-12.065a4.785 4.785 0 0 1-.206-.541h-1.858c.026.338 0 .675-.129.99a1012.85 1012.85 0 0 1-5.006 11.3c-.568 1.284-1.187 1.397-2.89 1.554v.675h6.115v-.675c-.284-.022-.8-.09-1.367-.18-.722-.113-.98-.383-.722-1.194.206-.562.825-2.047 1.34-3.263h5.78a74.388 74.388 0 0 1 1.498 3.647c.18.45.103.697-.464.81-.49.112-1.084.158-1.317.18v.675h6.839v-.675c-1.42-.113-2.065-.27-2.503-1.238zm5.624-1.824c-.852 0-1.394.586-1.394 1.261 0 .518.258 1.216 1.239 1.8 1.058.631 2.529 1.037 4.232 1.037 2.967 0 6.477-1.306 6.477-4.593 0-2.048-1.471-3.308-4.387-3.714 1.497-.18 3.638-1.103 3.638-3.354 0-1.823-1.342-3.579-5.315-3.579-1.42 0-2.658.382-3.536.743-.283-.067-.722-.315-.929-.428h-.516c-.025.653-.284 2.881-.541 4.075l.825.135c.232-.72.98-2.116 1.73-2.77.618-.54 1.444-.945 2.683-.945 2.348 0 3.019 1.486 3.019 3.017 0 1.8-1.084 2.859-3.148 2.859-.62 0-1.368-.045-1.755-.09v1.08c.439-.09 1.058-.135 1.729-.135 2.323 0 3.87.765 3.87 3.22 0 2.002-1.367 3.623-3.896 3.623-1.11 0-1.858-.18-2.348-.428-.335-.18-.516-.36-.49-.63.051-.315.128-.9.128-1.148 0-.608-.67-1.036-1.315-1.036m28.332 2.342V3.07c0-.788.387-1.126 1.084-1.238a11.49 11.49 0 0 1 1.342-.136v-.675h-7.226v.675c.542.023.955.068 1.342.158.826.135 1.058.563 1.058 1.216v11.007c0 .54-.206.63-.723.63h-6.58c-.464 0-.67-.067-.67-.518V3.07c0-.787.412-1.125 1.083-1.237.439-.068.8-.113 1.316-.136v-.675h-7.225v.675c.542.023.98.09 1.367.158.8.113 1.059.563 1.059 1.216v10.421c0 .654-.259 1.104-.981 1.217a12.62 12.62 0 0 1-1.445.157v.675h13.986c.542 0 .93.136 1.213.45.438.54.955 2.139 1.135 4.03h.826c.155-1.982.439-4.3.697-5.312h-2.168c-.413 0-.49-.226-.49-.563m16.049.202c-.748.518-1.651.743-2.632.743-1.703 0-3.07-.72-4.051-1.913-1.032-1.26-1.678-3.016-1.678-5.402 0-2.814.955-4.593 2.452-5.561.774-.54 1.729-.743 2.735-.743 1.42 0 2.606.473 3.535 1.418 1.187 1.238 1.961 3.062 1.961 5.583 0 2.994-.877 4.885-2.322 5.875zM110.8.662c-1.78 0-3.484.518-4.878 1.463-1.883 1.283-3.122 3.422-3.122 6.168 0 2.386 1.006 4.434 2.658 5.785 1.445 1.126 3.329 1.824 5.522 1.824 2.632 0 4.8-1.058 6.193-2.68 1.161-1.35 1.833-3.128 1.833-5.064 0-4.728-3.613-7.496-8.206-7.496zm17.777 14.158c-.723 0-1.574-.111-2.09-.427-.232-.157-.336-.382-.336-1.283V8.135h1.78c2.478 0 4.775.609 4.775 3.242 0 2.588-2.323 3.444-4.13 3.444zM126.15 2.644c0-.293.077-.495.181-.608.155-.157.464-.293 1.78-.293 2.245 0 3.716.766 3.716 2.77 0 1.642-.955 2.858-3.896 2.858h-1.78V2.643zm4.413 4.997c1.523-.225 3.793-1.103 3.793-3.399 0-1.328-.852-2.341-2.348-2.836-.774-.248-1.858-.383-3.716-.383h-6.967v.675c1.91.113 2.425.315 2.425 1.374v10.421c0 1.081-.464 1.261-2.425 1.374v.675h7.2c3.921 0 6.811-1.463 6.811-4.344 0-2.611-2.838-3.331-4.773-3.557zm18.914 6.707c-.748.518-1.652.743-2.632.743-1.703 0-3.071-.72-4.052-1.913-1.032-1.26-1.677-3.016-1.677-5.402 0-2.814.955-4.593 2.452-5.561.774-.54 1.728-.743 2.735-.743 1.42 0 2.606.473 3.535 1.418 1.187 1.238 1.961 3.062 1.961 5.583 0 2.994-.877 4.885-2.322 5.875zM146.355.662c-1.781 0-3.484.518-4.878 1.463-1.883 1.283-3.122 3.422-3.122 6.168 0 2.386 1.006 4.434 2.658 5.785 1.445 1.126 3.329 1.824 5.522 1.824 2.632 0 4.8-1.058 6.193-2.68 1.161-1.35 1.832-3.128 1.832-5.064 0-4.728-3.613-7.496-8.205-7.496z" fill="#1F1F1F" fill-rule="evenodd"/></svg>