<svg xmlns="http://www.w3.org/2000/svg" width="170" height="64"><path d="M91.248.063a16.833 16.833 0 0 0-1.467.017c-4.293.245-7.76 2.062-8.996 2.988-2.448 1.837-7.437 4.305-11.146 3.58-3.207-.628-5.929-2.686-7.266-3.857-.148-.129-.165-.246-.166-.246-.298-1.142-.712-1.625-1.299-1.82-.677-.225-1.268-.218-2.006.27-.057.04-.37.086-.718.034-1.58-.138-3.48.53-4.024.91-.218.154-.701.24-1.14.32-.197.037-.391.073-.573.116-.912.213-1.176 1.092-1.207 1.209l-.011.07c-.02.24-.156 2.354 1.195 2.934 1.334.571 2.085 1.01 2.174 1.107.611.675 2.18 1.956 3.83 2.055.403.424 1.154 1.385 1.396 1.709.292.39 2.546 2.543 5.768 4.363-.906.97-3.013 3.095-4.473 3.576-.5.123-1.932.436-2.539.387-.538-.03-1.056.268-1.406.834-.286.46-.467 1.11-.225 1.526.129.218.348.416 1.608.416.651 0 1.544-.055 2.65-.163l.168-.044c.702-.327 6.647-3.11 8.512-4.633 1.203.38 2.461.64 3.746.724-.51 1.129-1.115 2.004-1.748 2.004l-.037-.002c-.763-.044-1.634.27-2.225.791a1.24 1.24 0 0 0-.297 1.47c.166.351.374.568.617.645.124.04.412.092 1.463.092.557 0 1.382-.023 1.977-.043a2.376 2.376 0 0 0 1.547-.644c1.615-1.52 3.534-3.667 4.144-5.742.96-.613 3.968-2.571 5.244-3.666.94-.806 3.004-1.857 5.03-2.018-.019.908.198 3.88 3.697 4.998.1.031.2.068.297.111 1.267.576 1.686 1.056 1.695 1.164 0 .095.139.607-.908 1.372-.265.192-.944.254-1.283.324-1.614.33-2.535.92-2.666 1.71-.068.488.095 1.048.613 1.204.07.021.219.066.994.066.354 0 .843-.01 1.525-.035.252-.01.506-.08.727-.2 5.666-3.084 5.829-3.72 5.902-4.005.112-.388.016-.867-.18-1.32.558.19 1.026.26 1.33.224.98-.103 2.169.624 2.405.778l-.517 1.437a.998.998 0 0 1-.86.656c-1.244.121-1.81 1.003-1.81 1.772 0 .695.627.983.957 1.037l.043.006h2.054c.04.002.08.002.117.002.98 0 1.337-.637 1.407-.805.255-.375 2.498-3.694 2.883-4.463.204-.408.24-.785.107-1.115a1.082 1.082 0 0 0-.625-.602c-2.681-.873-3.073-3.834-3.129-4.77 7.222 2.397 11.557 1.049 15.986-.876 2.819-1.224 4.757-3.458 6.036-5.545.792-1.293-.659-2.784-1.961-2.008-2.036 1.213-4.278 2.405-5.465 2.916-7.799 3.361-15.015 1.034-15.055.99-4.17-4.868-8.83-6.18-12.416-6.293zm-.473 1.027c4.631 0 8.68 2.052 12.143 6.014.044.049 6.496 2.443 14.156-.018-.415.427-1.082.998-1.963 1.363 0 0 1.266.025 2.707-.129 0 0-.137.544-2.396 1.418 0 0 1.253.293 2.142.157l.07-.012c-3.702 1.367-7.743 1.993-13.687-.086l-.633-.223-.054.67c-.004.05-.378 5.073 3.654 6.395.006.016.008.102-.072.261-.366.733-2.81 4.34-2.846 4.395l-.049.096c-.008.023-.098.23-.558.203h-1.977c-.039-.013-.062-.024-.064-.012.002-.112.04-.841.81-.916 1.39-.136 1.805-1.176 1.805-1.176l.521-1.447c.086-.257.113-.785-.338-1.135-.015-.01-1.594-.988-3.115-.824-.867.098-4.25-1.29-5.845-4.627l-.006-.006c-.515-.887-1.094-2.144-1.342-2.693l-.082.004.023.187c.512 3.843 2.787 6.112 4.73 7.203.196.276.393.713.507 1.08a.756.756 0 0 1-.29.838c-.77.551-2.556 1.634-5.183 3.065a.63.63 0 0 1-.274.074c-1.144.042-1.81.037-2.064.027a.4.4 0 0 1 0-.068c0-.004.005-.01.006-.014.018-.162.09-.524.37-.691.302-.182 1.23-.252 1.646-.25a.94.94 0 0 0 .312-.049c.298-.103.578-.238.828-.42 1.532-1.118 1.71-1.756 1.71-2.139 0-.705-.777-1.415-2.306-2.109a3.707 3.707 0 0 0-.41-.156c-2.832-.906-3.106-3.248-3.117-4.018.29.02.576.057.854.125l.004-.002s.934.175 1.279.112l-.154-.084c-3.074-1.656-6.48-.716-8.584 1.087-.817.701-2.266 1.736-3.391 2.514-.993.448-1.527-.283-1.527-.283l-.061-.147-.064.696c-.206 2.224-2.786 5.059-4.305 6.55a1.71 1.71 0 0 1-1.106.489l-.482.027c-.924.052-2.19.123-2.346.043-.08-.153-.092-.28-.037-.387.21-.401.898-.797 1.25-.841.81-.105 1.882-.387 2.285-1.227 1.014-2.109 1.834-5.53 1.416-5.904l-.224-.2-.065.293a25.8 25.8 0 0 1-.937 3.233c-6.583-.38-13.018-6.08-13.395-6.58-.006-.01-.016-.02-.023-.03a.29.29 0 0 0-.072-.11c-.405-.45-.486-1.053-.502-1.307.079-.044.158-.081.236-.133l.646-.436-.77.117c-.031.006-3.125.445-4.798-1.931-.272-.388-1.423-.905-2.396-1.313l-.141-.06c-.445-.19-.656-1.043-.684-1.63.091-.061.415-.267.77-.304.217-.022.112-.295-.043-.498.053-.012.11-.023.178-.035.154-.03.326-.047.5-.066.443-.05.902-.101 1.2-.31.332-.233 1.985-.843 3.304-.73.26.04 1.143.133 1.597-.353.163-.174.66-.403.975-.297.405.135.524.578.537 1.149 0 .093.027.58.53 1.02.866.758 3.984 3.29 7.765 4.03 4.07.795 9.374-1.782 11.945-3.71 1.147-.862 4.389-2.551 8.434-2.782a16.3 16.3 0 0 1 .933-.027zm-33.99 2.629c-.305-.015-.562.023-.562.023s.001.007.006.018a.589.589 0 1 0 .725.57c0-.014-.004-.027-.005-.04.257-.176.68-.269.68-.269-.187-.218-.539-.287-.844-.302zm4.035.232a.603.603 0 0 0-.136.035c.006.003 1.087.402 1.046 1.2-.011.224-.67 1.197-1.455 1.06l-.023.139c.182.032.364.047.543.047.762 0 1.459-.276 1.74-.723.182-.289.202-.64-.03-.896-.785-.879-1.418-.904-1.685-.862zm5.594 12.317c.795.412 1.64.796 2.52 1.125-1.747 1.218-5.973 3.112-7.473 3.783-.204.09-.356.159-.441.199-1.296.122-2.576.17-3.118.125.044-.183.134-.452.264-.613.067-.083.475-.263.67-.246.91.058 2.471-.22 2.57-.246 1.758-.58 3.945-2.903 5.008-4.127zM9.66 32.23c-1.942 0-3.8.57-5.32 1.612C2.285 35.256.934 37.613.934 40.64c0 2.63 1.098 4.888 2.9 6.377 1.577 1.24 3.63 2.01 6.023 2.01 2.872 0 5.236-1.167 6.756-2.954 1.267-1.488 2-3.448 2-5.582 0-5.21-3.942-8.262-8.953-8.262zm71.555 0c-1.549 0-2.9.421-3.858.819-.309-.074-.788-.348-1.013-.473h-.563c-.027.72-.31 3.177-.592 4.492l.9.149c.254-.794 1.07-2.333 1.888-3.053.675-.595 1.576-1.041 2.927-1.041 2.562 0 3.293 1.637 3.293 3.324 0 1.985-1.181 3.153-3.433 3.153-.676 0-1.492-.05-1.914-.1v1.191c.478-.099 1.154-.15 1.886-.15 2.534 0 4.221.844 4.221 3.549 0 2.208-1.491 3.994-4.25 3.994-1.21 0-2.026-.198-2.56-.47-.366-.2-.564-.396-.536-.694.057-.348.141-.993.141-1.266 0-.67-.732-1.142-1.436-1.142-.929 0-1.52.646-1.52 1.39 0 .571.28 1.34 1.35 1.985 1.154.694 2.76 1.14 4.618 1.14 3.237 0 7.066-1.438 7.066-5.06 0-2.258-1.606-3.647-4.787-4.094 1.633-.199 3.97-1.216 3.97-3.697 0-2.01-1.463-3.946-5.798-3.946zm40.111 0c-1.942 0-3.8.57-5.32 1.612-2.055 1.414-3.406 3.771-3.406 6.799 0 2.63 1.096 4.888 2.898 6.377 1.577 1.24 3.633 2.01 6.025 2.01 2.872 0 5.236-1.167 6.756-2.954 1.267-1.488 1.998-3.448 1.998-5.582 0-5.21-3.94-8.262-8.95-8.262zm38.787 0c-1.942 0-3.8.57-5.32 1.612-2.055 1.414-3.406 3.771-3.406 6.799 0 2.63 1.098 4.888 2.9 6.377 1.577 1.24 3.631 2.01 6.024 2.01 2.87 0 5.235-1.167 6.755-2.954 1.267-1.488 2-3.448 2-5.582 0-5.21-3.942-8.262-8.953-8.262zm-125.287.223c-.732.124-1.577.174-4.055.174h-9.626v.744c.59.025 1.07.099 1.492.174.873.149 1.154.62 1.154 1.34v11.488c0 .72-.282 1.215-1.07 1.34-.479.074-.985.149-1.576.174v.744h7.853c2.14 0 3.941-.373 5.236-1.092 1.661-.943 2.45-2.333 2.45-3.97 0-1.713-.874-2.853-2.45-3.573-1.041-.446-2.787-.695-5.095-.695h-2.73v-5.186c0-.372.084-.619.591-.619h3.914c.563 0 .955.05 1.434.322.732.447 1.717 1.81 2.365 3.125l.76-.197c-.282-1.638-.619-3.177-.647-4.293zm4.672.174v.744c1.801.15 2.647.174 2.647 1.514v11.488c0 1.29-.761 1.39-2.647 1.514v.744h8.164v-.744c-2.449-.149-2.9-.372-2.9-1.514v-4.02c.535.05 1.097.075 1.576.075 2.195 0 4.419-.323 6.023-1.563 1.155-.869 1.86-2.035 1.86-3.748 0-1.612-.846-3-2.62-3.795-1.04-.471-2.616-.695-4.671-.695h-7.432zm22.857 0c.028.373 0 .745-.14 1.092a1120.807 1120.807 0 0 1-5.463 12.455c-.62 1.414-1.294 1.54-3.152 1.713v.744h6.671v-.744c-.31-.025-.872-.1-1.492-.2-.788-.123-1.069-.42-.787-1.314.225-.62.9-2.258 1.463-3.598h6.305a82.883 82.883 0 0 1 1.635 4.02c.196.496.111.77-.508.892-.535.125-1.182.175-1.436.2v.744h7.461v-.744c-1.548-.124-2.252-.299-2.73-1.366-.592-1.389-3.857-9.379-5.575-13.298-.084-.199-.17-.398-.226-.596h-2.026zm28.288 0v.744c.59.025 1.07.099 1.492.174.872.124 1.154.62 1.154 1.34v11.488c0 .72-.282 1.215-1.07 1.34a13.69 13.69 0 0 1-1.576.174v.744H105.9c.591 0 1.015.149 1.325.496.478.595 1.041 2.357 1.238 4.441h.9c.169-2.184.479-4.739.76-5.855h-2.363c-.45 0-.535-.249-.535-.621V34.885c0-.869.421-1.242 1.181-1.365.479-.076.901-.124 1.465-.149v-.744h-7.883v.744c.592.025 1.04.074 1.463.174.9.149 1.154.62 1.154 1.34v12.133c0 .595-.225.695-.789.695H96.64c-.507 0-.73-.074-.73-.57V34.885c0-.869.449-1.242 1.18-1.365.48-.076.874-.124 1.436-.149v-.744h-7.882zm42.168 0v.744c2.083.125 2.644.347 2.644 1.514v11.488c0 1.192-.505 1.39-2.644 1.514v.744h7.853c4.278 0 7.432-1.613 7.432-4.79 0-2.877-3.096-3.67-5.207-3.92 1.66-.248 4.136-1.215 4.136-3.745 0-1.465-.928-2.582-2.56-3.127-.845-.273-2.028-.422-4.055-.422h-7.6zm-123.206.496c1.549 0 2.842.52 3.856 1.563 1.295 1.364 2.14 3.374 2.14 6.154 0 3.3-.958 5.385-2.535 6.476-.816.571-1.8.819-2.87.819-1.859 0-3.351-.795-4.42-2.11-1.127-1.389-1.829-3.324-1.829-5.955 0-3.101 1.042-5.062 2.674-6.129.845-.594 1.887-.818 2.984-.818zm111.665 0c1.547 0 2.842.52 3.855 1.563 1.295 1.364 2.14 3.374 2.14 6.154 0 3.3-.957 5.385-2.533 6.476-.816.571-1.8.819-2.87.819-1.859 0-3.35-.795-4.42-2.11-1.127-1.389-1.83-3.324-1.83-5.955 0-3.101 1.04-5.062 2.673-6.129.845-.594 1.886-.818 2.985-.818zm38.789 0c1.548 0 2.842.52 3.855 1.563 1.295 1.364 2.139 3.374 2.139 6.154 0 3.3-.958 5.385-2.533 6.476-.817.571-1.802.819-2.872.819-1.857 0-3.35-.795-4.42-2.11-1.125-1.389-1.83-3.324-1.83-5.955 0-3.101 1.044-5.062 2.676-6.129.845-.594 1.886-.818 2.985-.818zm-113.243.297c2.506 0 4.534.845 4.534 3.896 0 2.78-1.606 4.293-5.012 4.293-.479 0-1.126-.026-1.379-.125-.113-.049-.197-.098-.197-.297V34.29c0-.348.056-.595.478-.719.338-.1.76-.15 1.576-.15zm93.399 0c2.448 0 4.053.844 4.053 3.053 0 1.81-1.042 3.15-4.25 3.15h-1.944v-5.209c0-.323.084-.546.197-.67.17-.174.507-.324 1.944-.324zm-77.55 1.564l2.759 6.873h-5.631c.732-1.836 2.252-5.433 2.871-6.873zm-36.257 5.16h2.252c4.195 0 5.096 1.588 5.096 3.598 0 3.177-2.478 4.094-4.758 4.094-1.182 0-1.858-.248-2.168-.447-.337-.223-.422-.57-.422-1.215v-6.03zm111.666.323h1.944c2.702 0 5.207.671 5.207 3.574 0 2.853-2.534 3.795-4.504 3.795-.788 0-1.719-.123-2.282-.47-.253-.173-.365-.422-.365-1.415v-5.484zM76.45 57.83c-.246 0-.47.027-.668.084-.2.057-.375.134-.527.227a2.043 2.043 0 0 0-.666.672l.846.587c.037-.053.081-.112.132-.18a.994.994 0 0 1 .436-.325.843.843 0 0 1 .318-.057c.236 0 .404.055.506.168a.533.533 0 0 1 .154.363.592.592 0 0 1-.166.39 2.97 2.97 0 0 1-.414.387c-.166.133-.347.272-.543.42-.196.147-.378.31-.544.487a2.55 2.55 0 0 0-.415.588c-.11.215-.166.455-.166.724v.686h3.456V62.02H76.07c0-.125.052-.245.157-.364a3.05 3.05 0 0 1 .39-.361c.155-.125.324-.254.504-.39.18-.139.348-.287.504-.448a2.32 2.32 0 0 0 .387-.533c.102-.193.152-.41.152-.653 0-.182-.036-.359-.105-.53a1.304 1.304 0 0 0-.319-.46 1.592 1.592 0 0 0-.535-.326 2.063 2.063 0 0 0-.756-.125zm5.928 0a1.89 1.89 0 0 0-.875.193 1.78 1.78 0 0 0-.627.541 2.38 2.38 0 0 0-.379.836 4.371 4.371 0 0 0-.125 1.08c0 .397.042.763.125 1.096.083.333.21.618.379.854s.376.42.623.552c.247.132.536.198.87.198.342 0 .64-.066.89-.198s.456-.316.623-.552c.166-.236.29-.52.371-.854.08-.333.121-.699.121-1.096 0-.392-.04-.752-.121-1.08a2.427 2.427 0 0 0-.365-.836 1.702 1.702 0 0 0-.625-.54 1.925 1.925 0 0 0-.885-.194zm5.838 0c-.333 0-.625.065-.875.193a1.78 1.78 0 0 0-.627.541 2.39 2.39 0 0 0-.379.836 4.399 4.399 0 0 0-.125 1.08c0 .397.042.763.125 1.096.083.333.21.618.379.854.17.236.376.42.623.552.247.132.536.198.87.198.343 0 .64-.066.89-.198s.456-.316.623-.552c.166-.236.29-.52.37-.854.082-.333.122-.699.122-1.096 0-.392-.04-.752-.121-1.08a2.438 2.438 0 0 0-.365-.836 1.706 1.706 0 0 0-.625-.54 1.925 1.925 0 0 0-.885-.194zm4.049.145v1.03h2.238a9.554 9.554 0 0 0-.418.763c-.161.32-.326.666-.492 1.043-.167.376-.327.76-.483 1.152-.155.392-.284.755-.386 1.088h1.216a16.5 16.5 0 0 1 .338-1.016c.134-.365.277-.73.43-1.096.153-.364.316-.719.484-1.062.17-.344.334-.652.495-.926v-.976h-3.422zm-9.897.92c.145 0 .27.037.375.119.104.08.19.191.258.334.067.142.116.31.148.504a4.375 4.375 0 0 1 .004 1.273 1.94 1.94 0 0 1-.144.52.926.926 0 0 1-.258.35.566.566 0 0 1-.373.128.581.581 0 0 1-.383-.129.938.938 0 0 1-.258-.35 1.919 1.919 0 0 1-.144-.519 4.3 4.3 0 0 1-.045-.645c0-.225.015-.436.045-.628.028-.194.077-.362.144-.504a.887.887 0 0 1 .258-.334.586.586 0 0 1 .373-.12zm5.838 0c.145 0 .27.037.375.119.104.08.19.191.258.334.067.142.116.31.148.504.032.192.05.403.05.628 0 .23-.017.446-.046.645a1.94 1.94 0 0 1-.144.52.932.932 0 0 1-.258.35.565.565 0 0 1-.373.128.581.581 0 0 1-.383-.129.932.932 0 0 1-.258-.35 1.919 1.919 0 0 1-.144-.519 4.3 4.3 0 0 1-.045-.645c0-.225.014-.436.045-.628.029-.194.076-.362.144-.504a.881.881 0 0 1 .258-.334.586.586 0 0 1 .373-.12z" fill="#1f1f1f"/></svg>