<svg width="179" height="18" xmlns="http://www.w3.org/2000/svg"><g fill="#FFF" fill-rule="evenodd" opacity=".24"><path d="M28.065 3.406l.045.569a3.115 3.115 0 0 1-.915.14c-.25 0-.486-.035-.71-.106a1.725 1.725 0 0 1-.593-.322 1.533 1.533 0 0 1-.398-.534 1.792 1.792 0 0 1-.14-.727c0-.258.044-.496.134-.71.091-.213.222-.395.394-.548.173-.151.38-.27.624-.347.244-.08.52-.122.821-.122.268 0 .528.038.783.115l-.029.575a1.938 1.938 0 0 0-.705-.125c-.24 0-.457.045-.649.134-.192.09-.343.222-.45.397-.11.172-.162.38-.162.625 0 .265.055.486.172.657.12.168.27.292.456.362.181.076.377.113.584.113.264 0 .51-.05.738-.146zm4.358-2.67h2.766v.593h-1.025v2.748h-.719V1.329h-1.022V.737zm7.228 0H40.7c.521 0 .876.113 1.07.336.192.226.29.462.29.712a.989.989 0 0 1-.55.89 1.413 1.413 0 0 1-.68.149h-.46v1.254h-.718V.737zm.718 1.562h.33c.19 0 .34-.051.442-.153a.51.51 0 0 0 .16-.381.468.468 0 0 0-.147-.355c-.094-.096-.248-.145-.455-.145h-.33v1.034zm7.89-1.6c.332 0 .63.069.891.2.264.133.473.328.621.585.15.257.225.566.225.926 0 .357-.076.665-.225.924a1.443 1.443 0 0 1-.62.585 1.95 1.95 0 0 1-.892.198c-.334 0-.63-.066-.893-.198a1.44 1.44 0 0 1-.617-.583 1.828 1.828 0 0 1-.227-.926c0-.363.078-.67.227-.926.148-.257.353-.452.617-.584.263-.132.56-.2.893-.2zm0 .48a1.07 1.07 0 0 0-.446.097.859.859 0 0 0-.375.376c-.103.182-.157.435-.157.758 0 .32.054.574.157.756a.854.854 0 0 0 .375.376c.143.065.293.099.446.099.11 0 .217-.02.326-.052a.87.87 0 0 0 .316-.182.977.977 0 0 0 .241-.382 1.73 1.73 0 0 0 .094-.615c0-.324-.05-.576-.156-.758a.85.85 0 0 0-.373-.376 1.096 1.096 0 0 0-.448-.097zm6.353-.441h.718v1.718l-.016.813h.016l.251-.488L56.823.737h.86v3.34h-.719V2.356l.016-.807h-.016l-.243.505-1.249 2.023h-.86V.737zm7.535 0h2.764v.592h-1.024v2.748h-.718V1.329h-1.022V.737zm7.228 0h2.116v.592h-1.399v.756h1.27v.548h-1.27v.852h1.4v.592h-2.117V.737zm7.157 0h2.327v3.34h-.72V1.329h-.932v.668c0 .387-.01.697-.027.933a2.261 2.261 0 0 1-.125.625.851.851 0 0 1-.309.414c-.14.099-.334.147-.575.147a1.98 1.98 0 0 1-.34-.04l.031-.527c.085.016.148.024.19.024.197 0 .328-.106.39-.318.061-.21.097-.498.097-.866 0-.066 0-.167-.003-.293l-.004-.27V.736zm7.787 0V1.99h.498c.311 0 .564.049.761.146.194.099.337.226.417.379a.98.98 0 0 1 .127.486c0 .152-.026.293-.077.42a.915.915 0 0 1-.236.342 1.091 1.091 0 0 1-.42.229 1.828 1.828 0 0 1-.594.085h-1.192V.737h.716zm0 1.778v1.037h.476c.183 0 .331-.047.434-.146a.48.48 0 0 0 .16-.372.552.552 0 0 0-.138-.36c-.093-.106-.263-.16-.51-.16h-.422zM90.741.737h.714v1.348h1.441V.737h.717v3.34h-.717V2.633h-1.44v1.444h-.715V.737zm8.745 0h.822l1.408 3.34h-.81l-.3-.746h-1.46l-.299.746h-.768l1.407-3.34zm-.112 2.038h1.02l-.52-1.363h-.013l-.487 1.363zm9.324-2.038v3.34h-.718v-1.24h-.43l-.686 1.24h-.862l.848-1.374a1.098 1.098 0 0 1-.48-.291c-.146-.144-.22-.36-.22-.642 0-.298.081-.522.244-.674.164-.154.346-.251.55-.294.205-.044.405-.065.606-.065h1.148zm-.718 1.575V1.264h-.409a1.06 1.06 0 0 0-.445.097c-.143.065-.217.207-.217.426 0 .15.052.275.158.374.105.1.276.15.51.15h.403zM120.547.737h.717v1.43h.017l1.277-1.43h.855l-1.477 1.512 1.573 1.828h-.913l-1.315-1.657h-.017v1.657h-.717V.737zm8.992-.038c.334 0 .631.068.894.2.264.132.47.327.62.584.146.257.221.566.221.926 0 .357-.075.665-.222.924a1.45 1.45 0 0 1-.619.585c-.263.132-.56.198-.894.198-.332 0-.63-.066-.895-.198a1.465 1.465 0 0 1-.618-.583 1.84 1.84 0 0 1-.222-.926c0-.363.074-.67.222-.926.15-.257.357-.452.618-.584.265-.132.563-.2.895-.2zm0 .479c-.15 0-.302.032-.446.097a.862.862 0 0 0-.374.376c-.103.182-.157.435-.157.758 0 .32.054.574.157.756.104.183.227.308.374.376.144.065.296.099.446.099.108 0 .216-.02.327-.052a.84.84 0 0 0 .314-.182c.098-.091.178-.215.243-.382a1.78 1.78 0 0 0 .092-.615c0-.324-.05-.576-.154-.758a.86.86 0 0 0-.376-.376 1.08 1.08 0 0 0-.446-.097zm8.781 2.899h-.682l-.862-2.384-.163-.48h-.016l.011.518v2.346h-.717V.737h1.212l.71 1.944.158.59h.013l.16-.59.708-1.944h1.212v3.34h-.72V1.73l.013-.517h-.017l-.16.479-.86 2.384zm6.491-3.34h2.836v3.34h-.718v-2.79h-1.402v2.79h-.716V.737zm8.712 0h.822l1.404 3.34h-.808l-.298-.746h-1.463l-.299.746h-.77l1.412-3.34zm-.117 2.038h1.021l-.518-1.363h-.01l-.493 1.363zm6.808-2.038h.72v1.348h1.438V.737h.717v3.34h-.717V2.633h-1.438v1.444h-.72V.737zm7.62 0h.716v1.718l-.017.813h.017l.254-.488 1.241-2.043h.856v3.34h-.717V2.356l.016-.807h-.016l-.239.505-1.252 2.023h-.86V.737zm10.333 0v3.34h-.72v-1.24h-.429l-.687 1.24h-.862l.846-1.374a1.103 1.103 0 0 1-.479-.291c-.146-.144-.222-.36-.222-.642 0-.298.085-.522.248-.674.161-.154.343-.251.55-.294.203-.044.404-.065.606-.065h1.15zm-.72 1.575V1.264h-.408c-.154 0-.3.03-.444.097-.147.065-.219.207-.219.426a.49.49 0 0 0 .156.374c.108.1.276.15.51.15h.405zM27.924 16.945v-7.29l3.02 5.116c.172.3.37.589.59.874.22.282.466.532.738.747.27.217.578.392.919.528.34.136.72.202 1.137.202a3.6 3.6 0 0 0 1.162-.168 2.77 2.77 0 0 0 .86-.48c.247-.206.471-.451.666-.736.198-.285.4-.602.61-.95l3.07-5.225v7.314h3.107v-7.18c0-.36-.073-.707-.225-1.04a2.752 2.752 0 0 0-.643-.884 3.181 3.181 0 0 0-1.008-.614 3.56 3.56 0 0 0-1.318-.23c-.763 0-1.412.158-1.944.472-.532.316-.934.774-1.212 1.376l-3.178 5.847-2.897-5.55a4.384 4.384 0 0 0-.555-.836 3.733 3.733 0 0 0-1.727-1.141 3.76 3.76 0 0 0-1.154-.168c-.439 0-.85.066-1.233.197-.381.13-.71.306-.988.525a2.512 2.512 0 0 0-.659.782 1.999 1.999 0 0 0-.245.966v7.478l3.107.068zM49.626 6.881c-.637 0-1.227.073-1.78.218a4.742 4.742 0 0 0-1.44.625 3.161 3.161 0 0 0-.971 1.008 2.578 2.578 0 0 0-.357 1.351v3.623c0 .475.124.911.373 1.302.25.391.58.73.998 1.012a5.14 5.14 0 0 0 1.44.662 6.114 6.114 0 0 0 1.704.237h13.474V14.27H48.342v-1.08h14.725v-2.58H48.342V9.45h14.725V6.88H49.626zm14.714.042v2.526h7.52v7.429h3.228V9.449h7.467c.21-1.195 1.044-2.159 2.174-2.508L64.34 6.923zm71.293-.013H119.58c1.102.514 1.884 1.29 1.866 2.655v7.315h3.437v-3.69h11.129c.557 0 1.088-.082 1.599-.252a4.46 4.46 0 0 0 1.336-.68 3.5 3.5 0 0 0 .915-1.006 2.4 2.4 0 0 0 .336-1.238c0-.458-.13-.875-.392-1.255a3.547 3.547 0 0 0-1.023-.978 5.235 5.235 0 0 0-1.458-.643 6.285 6.285 0 0 0-1.693-.228zm-10.75 3.81H136.8V9.45h-11.915v1.27zm34.087-1.609v7.768h-3.247V9.422l-8.734 6.631c-.255.196-.528.321-.755.441a5.91 5.91 0 0 1-.65.304c-.21.08-.416.14-.624.175a4.232 4.232 0 0 1-.68.054 3.85 3.85 0 0 1-1.352-.22 3.036 3.036 0 0 1-1-.605 2.603 2.603 0 0 1-.625-.888 2.773 2.773 0 0 1-.216-1.083V6.95h3.266v7.43l8.732-6.685c.852-.654 1.748-.973 2.675-.973.416 0 .815.064 1.199.197.379.127.72.3 1.024.517.298.216.539.47.72.756.179.29.267.594.267.92m19.33-2.189v2.526h-7.517v7.429h-3.232V9.449H160c-.005-1.294-.404-2.19-1.485-2.508l19.784-.018zm-90.348-.042a6.96 6.96 0 0 0-1.779.218 4.753 4.753 0 0 0-1.44.625c-.41.277-.738.611-.974 1.008a2.597 2.597 0 0 0-.357 1.351v3.623c0 .475.126.91.376 1.302.248.391.58.73.996 1.012.42.283.898.502 1.441.662a6.122 6.122 0 0 0 1.702.237h13.474V14.27H86.668v-1.08h14.723v-2.58H86.668V9.45h14.723v-.008c.217-1.222 1.07-2.203 2.221-2.56l-7.068-.009v.008h-8.592z"/><path d="M106.946 6.949c-.577 0-1.14.07-1.683.215a5.454 5.454 0 0 0-1.46.612c-.427.259-.77.57-1.022.929a1.99 1.99 0 0 0-.383 1.19v3.77c0 .457.105.88.314 1.268.206.388.493.723.857 1.006.365.286.797.507 1.294.663a5.347 5.347 0 0 0 1.617.236h9.88c.532 0 1.043-.08 1.536-.243.49-.164.927-.381 1.303-.656.373-.274.676-.595.9-.96.227-.362.339-.752.339-1.167v-3.69a2.4 2.4 0 0 0-.328-1.2 3.455 3.455 0 0 0-.886-1.013 4.565 4.565 0 0 0-1.283-.695c-.49-.18-1-.265-1.53-.265h-9.465zm-1.23 7.389h11.353v-4.81h-11.353v4.81zM7.5 2.977L0 9.665v1.838c0 .206.045.325.127.276l7.319-6.523V3.511c0-.18.018-.359.055-.534M8.7 10.648l-6.273 5.606c.02.355.447.645 1.072.645h1.945l5.76-5.168a5.527 5.527 0 0 1-.934-.218 4.607 4.607 0 0 1-1.482-.79c-.029-.023-.059-.05-.088-.075m5.684 1.147l-5.748 5.11h3.713l5.913-5.254a5.432 5.432 0 0 1-1.259.144h-2.619zM13.201 0a6.81 6.81 0 0 0-1.813.242 5.755 5.755 0 0 0-1.572.681 3.72 3.72 0 0 0-1.102 1.044 2.312 2.312 0 0 0-.41 1.334v4.226c0 .515.111.989.335 1.423.226.434.534.81.926 1.13.394.316.856.564 1.394.74a5.505 5.505 0 0 0 1.738.266h4.59a5.08 5.08 0 0 0 1.654-.272c.53-.182.998-.427 1.402-.734.407-.309.732-.666.974-1.077a2.5 2.5 0 0 0 .364-1.309V3.557c0-.462-.119-.912-.355-1.346a3.766 3.766 0 0 0-.953-1.137 4.951 4.951 0 0 0-1.386-.782A4.683 4.683 0 0 0 17.341 0H13.2zm-1.325 8.284h6.178V2.889h-6.178v5.395z"/></g></svg>