<svg width="171" height="64" xmlns="http://www.w3.org/2000/svg"><g fill="#FFF" fill-rule="evenodd"><path d="M56.11 3.956l.007.018a.593.593 0 0 0 .138 1.171.595.595 0 0 0 .596-.595c0-.014-.004-.027-.005-.042.26-.176.687-.27.687-.27-.378-.442-1.423-.282-1.423-.282zm4.515.247c.007.002 1.102.406 1.06 1.211-.011.227-.678 1.21-1.473 1.071l-.024.14c.184.033.369.049.55.049.771 0 1.477-.279 1.762-.73.184-.292.203-.647-.03-.907-1.061-1.183-1.845-.834-1.845-.834z"/><path d="M104.414 10.072l-.64-.223-.056.675c-.005.051-.383 5.126 3.699 6.462.006.017.006.103-.075.264-.37.74-2.843 4.384-2.878 4.44l-.05.097c-.008.023-.1.23-.565.204h-2c-.04-.012-.064-.023-.067-.011.002-.113.04-.851.821-.927 1.407-.137 1.827-1.187 1.827-1.187l.528-1.462c.086-.26.113-.793-.342-1.146-.016-.01-1.614-1-3.153-.834-.878.1-4.303-1.301-5.917-4.673l-.006-.006c-.52-.897-1.108-2.167-1.359-2.722l-.083.004.025.19c.518 3.881 2.82 6.176 4.787 7.278.198.278.399.719.513 1.09a.765.765 0 0 1-.293.847c-.78.557-2.588 1.65-5.247 3.095a.64.64 0 0 1-.277.075 33.362 33.362 0 0 1-2.089.03.405.405 0 0 1 0-.07c.001-.004.006-.01.006-.013.019-.164.091-.53.373-.7.306-.183 1.247-.253 1.667-.252a.948.948 0 0 0 .315-.05 3.18 3.18 0 0 0 .84-.423c1.55-1.13 1.729-1.775 1.729-2.161 0-.713-.785-1.43-2.332-2.131a3.768 3.768 0 0 0-.416-.158c-2.866-.915-3.143-3.281-3.154-4.06.294.02.583.059.864.127l.003-.002s.946.176 1.295.112l-.156-.084c-3.11-1.673-6.56-.723-8.689 1.1-.826.707-2.293 1.751-3.432 2.538-1.005.452-1.544-.285-1.544-.285l-.063-.15-.065.704c-.208 2.247-2.818 5.11-4.356 6.618-.3.295-.698.47-1.119.494l-.49.027c-.935.052-2.216.124-2.373.043-.08-.155-.093-.283-.038-.39.213-.406.91-.805 1.266-.85.82-.107 1.904-.392 2.313-1.24 1.026-2.131 1.855-5.587 1.432-5.966l-.227-.202-.064.297a26.012 26.012 0 0 1-.949 3.265c-6.662-.383-13.176-6.141-13.558-6.647-.006-.01-.015-.02-.023-.03a.296.296 0 0 0-.074-.111c-.41-.455-.49-1.064-.507-1.32.08-.045.16-.084.24-.136l.653-.44-.779.118c-.032.006-3.163.45-4.856-1.952-.276-.392-1.441-.914-2.426-1.326l-.143-.06c-.45-.193-.663-1.054-.691-1.646.092-.063.419-.27.778-.307.22-.023.115-.298-.042-.503a4.75 4.75 0 0 1 .18-.036c.156-.03.329-.048.505-.067.448-.05.913-.101 1.215-.313.336-.235 2.01-.852 3.344-.738.262.04 1.158.135 1.617-.356.165-.176.668-.407.986-.3.41.137.531.584.544 1.16 0 .094.026.587.534 1.03.877.767 4.035 3.326 7.862 4.074 4.118.802 9.488-1.801 12.09-3.75 1.16-.87 4.44-2.577 8.534-2.81 5.083-.294 9.498 1.779 13.236 6.048.044.05 6.574 2.47 14.327-.017-.42.431-1.095 1.007-1.987 1.376 0 0 1.282.026 2.74-.13 0 0-.138.55-2.425 1.432 0 0 1.268.296 2.168.158l.073-.012c-3.748 1.381-7.838 2.014-13.854-.087zM61.412 21.57c-.206.092-.36.16-.447.201-1.311.124-2.607.173-3.155.128.045-.186.136-.457.267-.62.069-.084.48-.266.678-.25.92.06 2.5-.221 2.601-.247 1.78-.585 3.994-2.933 5.07-4.17a23.12 23.12 0 0 0 2.55 1.136c-1.768 1.23-6.046 3.144-7.564 3.822zM126.88 4.68c.802-1.307-.667-2.813-1.985-2.029-2.06 1.226-4.329 2.43-5.53 2.946-7.894 3.396-15.197 1.044-15.237 1C99.305.975 93.83.047 90.076.256c-4.345.248-7.855 2.083-9.106 3.02-2.477 1.855-7.526 4.35-11.28 3.617-3.246-.635-6-2.714-7.354-3.898-.15-.13-.169-.248-.17-.248-.3-1.154-.72-1.641-1.314-1.84-.685-.226-1.283-.22-2.03.272-.057.042-.375.088-.728.035-1.597-.139-3.52.535-4.071.92-.221.154-.71.244-1.154.325-.199.037-.397.073-.58.116-.924.215-1.19 1.103-1.22 1.22l-.013.072c-.02.242-.157 2.378 1.21 2.964 1.35.577 2.11 1.02 2.2 1.119.619.682 2.207 1.976 3.876 2.075.408.43 1.168 1.4 1.413 1.728.295.393 2.577 2.568 5.837 4.407-.917.98-3.048 3.127-4.526 3.613-.505.124-1.955.44-2.57.392-.544-.03-1.069.27-1.423.843-.29.464-.471 1.121-.226 1.54.13.222.351.42 1.626.42.66 0 1.563-.054 2.682-.162l.171-.046c.71-.33 6.726-3.144 8.613-4.682 1.218.383 2.492.648 3.792.733-.516 1.14-1.127 2.024-1.768 2.024l-.038-.001c-.772-.045-1.653.271-2.252.798-.423.373-.543.97-.3 1.486.168.354.378.574.625.652.125.04.416.093 1.48.093.563 0 1.4-.024 2.002-.045.583-.02 1.14-.25 1.564-.65 1.635-1.535 3.576-3.705 4.194-5.802.972-.618 4.016-2.596 5.308-3.703.952-.814 3.04-1.875 5.09-2.039-.019.918.203 3.92 3.744 5.05.102.032.202.069.3.113 1.282.582 1.707 1.066 1.716 1.176 0 .095.14.612-.92 1.384-.267.195-.955.257-1.298.328-1.634.333-2.566.93-2.7 1.728-.068.493.097 1.06.622 1.217.071.021.22.065 1.005.065.358 0 .855-.009 1.545-.034.255-.01.512-.08.735-.202 5.735-3.116 5.9-3.758 5.975-4.046.113-.392.016-.877-.182-1.335.563.192 1.038.263 1.346.227.992-.104 2.194.63 2.433.785l-.523 1.454a1.008 1.008 0 0 1-.87.661c-1.26.123-1.832 1.014-1.832 1.791 0 .702.635.992.968 1.047l.043.007h2.08c.04.002.08.002.118.002.992 0 1.352-.644 1.423-.813.258-.38 2.53-3.734 2.919-4.51.206-.413.243-.792.108-1.125a1.099 1.099 0 0 0-.633-.61c-2.714-.881-3.109-3.873-3.166-4.818 7.31 2.42 11.697 1.059 16.18-.886 2.853-1.236 4.814-3.493 6.108-5.602zM76.358 62.467a3.05 3.05 0 0 1 .395-.365c.157-.126.327-.257.51-.395.182-.14.351-.289.509-.451.157-.164.288-.343.39-.539.104-.194.156-.414.156-.66 0-.184-.036-.362-.106-.536a1.316 1.316 0 0 0-.322-.463 1.612 1.612 0 0 0-.542-.33 2.102 2.102 0 0 0-.767-.126 2.43 2.43 0 0 0-.675.085c-.202.057-.38.133-.534.227a2.055 2.055 0 0 0-.673.68l.856.595a4.84 4.84 0 0 1 .135-.183.999.999 0 0 1 .44-.33.855.855 0 0 1 .321-.057c.24 0 .41.057.514.171a.534.534 0 0 1 .155.366.595.595 0 0 1-.167.394 3.101 3.101 0 0 1-.42.391c-.168.134-.352.274-.55.424a4.282 4.282 0 0 0-.55.492 2.585 2.585 0 0 0-.42.594 1.585 1.585 0 0 0-.168.733v.691h3.497v-1.04H76.2a.55.55 0 0 1 .159-.368m7.007-.537c-.029.2-.078.376-.146.525a.939.939 0 0 1-.26.354.576.576 0 0 1-.38.13.589.589 0 0 1-.387-.13.95.95 0 0 1-.26-.354 1.933 1.933 0 0 1-.147-.524 4.34 4.34 0 0 1-.045-.652c0-.228.015-.44.045-.635a1.79 1.79 0 0 1 .147-.508.897.897 0 0 1 .26-.338.599.599 0 0 1 .38-.122c.146 0 .272.04.378.122a.902.902 0 0 1 .261.338c.068.143.118.312.15.508a4.416 4.416 0 0 1 .004 1.286zm.743-2.587a1.72 1.72 0 0 0-.632-.547 1.952 1.952 0 0 0-.896-.194 1.92 1.92 0 0 0-.885.194c-.253.13-.465.313-.635.547-.172.232-.3.514-.384.846a4.404 4.404 0 0 0-.126 1.09c0 .401.042.771.126 1.108.084.336.212.623.384.862.17.238.38.424.631.558.25.133.543.199.88.199.347 0 .648-.066.9-.2a1.77 1.77 0 0 0 .632-.557 2.49 2.49 0 0 0 .375-.862c.082-.337.123-.707.123-1.108 0-.396-.04-.759-.123-1.09a2.46 2.46 0 0 0-.37-.846zm5.167 2.587c-.03.2-.078.376-.147.525a.944.944 0 0 1-.26.354.576.576 0 0 1-.38.13.589.589 0 0 1-.387-.13.944.944 0 0 1-.26-.354 1.933 1.933 0 0 1-.147-.524 4.343 4.343 0 0 1-.045-.652c0-.228.014-.44.045-.635a1.79 1.79 0 0 1 .147-.508.89.89 0 0 1 .26-.338.599.599 0 0 1 .38-.122.6.6 0 0 1 .379.122.901.901 0 0 1 .26.338c.068.143.118.312.15.508a4.498 4.498 0 0 1 .004 1.286zm.742-2.587a1.722 1.722 0 0 0-.632-.547 1.954 1.954 0 0 0-.896-.194c-.337 0-.632.065-.885.194-.253.13-.464.313-.635.547a2.421 2.421 0 0 0-.384.846 4.43 4.43 0 0 0-.126 1.09c0 .401.042.771.126 1.108.085.336.212.623.384.862.17.238.38.424.63.558.251.133.544.199.881.199.348 0 .648-.066.901-.2a1.79 1.79 0 0 0 .631-.557 2.5 2.5 0 0 0 .376-.862 4.69 4.69 0 0 0 .122-1.108c0-.396-.04-.759-.122-1.09a2.472 2.472 0 0 0-.371-.846zm2.571.447h2.266a9.68 9.68 0 0 0-.424.768c-.163.324-.33.675-.498 1.055-.168.38-.331.768-.488 1.165a14.43 14.43 0 0 0-.392 1.097h1.231c.092-.314.207-.657.342-1.025.136-.37.281-.737.436-1.107.155-.368.318-.728.489-1.074.171-.348.338-.66.501-.936v-.985H92.59v1.042M12.432 47.979c-.827.576-1.824.827-2.906.827-1.88 0-3.391-.803-4.474-2.13-1.14-1.405-1.852-3.36-1.852-6.017 0-3.134 1.055-5.115 2.707-6.193.855-.6 1.909-.827 3.02-.827 1.567 0 2.878.527 3.904 1.58 1.31 1.379 2.165 3.41 2.165 6.217 0 3.334-.969 5.44-2.564 6.543zM8.984 32.738c-1.966 0-3.846.576-5.385 1.629-2.08 1.428-3.448 3.81-3.448 6.868 0 2.658 1.112 4.939 2.935 6.443 1.596 1.253 3.676 2.03 6.098 2.03 2.906 0 5.3-1.178 6.838-2.983 1.282-1.503 2.022-3.484 2.022-5.64 0-5.265-3.988-8.347-9.06-8.347zm19.572 15.767c-1.197 0-1.88-.25-2.194-.452-.341-.225-.427-.576-.427-1.227v-6.092h2.28c4.245 0 5.157 1.604 5.157 3.635 0 3.209-2.508 4.136-4.816 4.136zm5.3-7.922c-1.054-.45-2.82-.701-5.157-.701h-2.764v-5.24c0-.376.086-.626.599-.626h3.96c.57 0 .968.05 1.453.326.74.45 1.738 1.83 2.393 3.158l.77-.2c-.285-1.655-.628-3.21-.656-4.337-.741.125-1.595.175-4.102.175h-9.745v.752c.599.025 1.082.1 1.51.176.884.15 1.169.626 1.169 1.354v11.606c0 .727-.285 1.228-1.083 1.354-.485.075-.997.15-1.596.175v.752h7.95c2.165 0 3.988-.376 5.299-1.102 1.68-.953 2.478-2.357 2.478-4.012 0-1.73-.883-2.882-2.478-3.61zm12.251 1.63c-.485 0-1.14-.026-1.397-.125-.114-.05-.2-.1-.2-.301v-6.969c0-.352.058-.602.485-.727.342-.101.769-.15 1.595-.15 2.537 0 4.588.852 4.588 3.935 0 2.808-1.624 4.337-5.071 4.337zm5.327-8.373c-1.054-.476-2.65-.702-4.73-.702h-7.521v.752c1.823.151 2.678.176 2.678 1.53v11.606c0 1.303-.77 1.404-2.678 1.53v.75h8.262v-.75c-2.479-.15-2.935-.376-2.935-1.53v-4.061c.542.05 1.112.076 1.597.076 2.221 0 4.472-.327 6.096-1.58 1.169-.878 1.88-2.055 1.88-3.785 0-1.63-.854-3.033-2.649-3.836zm8.29 8.623c.741-1.855 2.28-5.489 2.906-6.943l2.793 6.943h-5.699zm10.514 4.713c-.599-1.403-3.904-9.476-5.642-13.436a5.4 5.4 0 0 1-.228-.602h-2.051c.028.377 0 .752-.142 1.103a1144.55 1144.55 0 0 1-5.528 12.585c-.627 1.428-1.31 1.554-3.191 1.73v.75h6.753v-.75a22.25 22.25 0 0 1-1.51-.202c-.798-.125-1.083-.425-.798-1.328.228-.627.912-2.28 1.481-3.635h6.382a83.25 83.25 0 0 1 1.653 4.061c.2.502.114.777-.513.902-.54.126-1.196.176-1.453.201v.752H73v-.752c-1.567-.125-2.28-.3-2.763-1.379zm6.209-2.03c-.94 0-1.538.652-1.538 1.404 0 .577.285 1.354 1.368 2.005 1.168.702 2.792 1.154 4.672 1.154 3.276 0 7.152-1.455 7.152-5.115 0-2.28-1.625-3.684-4.845-4.135 1.653-.202 4.018-1.23 4.018-3.736 0-2.03-1.481-3.985-5.869-3.985-1.567 0-2.935.425-3.904.827-.313-.075-.797-.351-1.025-.477h-.57c-.028.728-.313 3.209-.598 4.538l.911.15c.257-.802 1.083-2.356 1.91-3.084.683-.601 1.595-1.053 2.962-1.053 2.593 0 3.334 1.655 3.334 3.36 0 2.005-1.197 3.184-3.476 3.184-.684 0-1.51-.05-1.937-.1v1.203c.484-.1 1.168-.151 1.909-.151 2.564 0 4.273.853 4.273 3.585 0 2.23-1.51 4.036-4.302 4.036-1.225 0-2.051-.2-2.593-.477-.37-.2-.57-.4-.541-.701.057-.352.142-1.003.142-1.278 0-.678-.74-1.154-1.453-1.154m31.283 2.607V35.42c0-.878.427-1.254 1.197-1.379.484-.076.911-.126 1.482-.15v-.753h-7.979v.752c.6.025 1.055.075 1.482.176.912.15 1.168.626 1.168 1.354v12.258c0 .601-.227.702-.798.702h-7.265c-.513 0-.74-.076-.74-.577V35.42c0-.878.455-1.254 1.196-1.379.484-.076.883-.126 1.453-.15v-.753h-7.978v.752c.599.025 1.083.1 1.51.176.883.125 1.169.626 1.169 1.354v11.606c0 .727-.286 1.228-1.083 1.354-.484.075-.997.15-1.596.175v.752h15.443c.598 0 1.026.151 1.34.502.483.601 1.053 2.381 1.252 4.487h.912c.171-2.207.485-4.788.77-5.916h-2.394c-.456 0-.54-.25-.54-.627m17.719.226c-.826.576-1.823.827-2.906.827-1.88 0-3.39-.803-4.473-2.13-1.14-1.405-1.852-3.36-1.852-6.017 0-3.134 1.054-5.115 2.707-6.193.855-.6 1.909-.827 3.02-.827 1.567 0 2.877.527 3.903 1.58 1.31 1.379 2.166 3.41 2.166 6.217 0 3.334-.97 5.44-2.564 6.543zm-3.447-15.241c-1.966 0-3.846.576-5.385 1.629-2.08 1.428-3.448 3.81-3.448 6.868 0 2.658 1.111 4.939 2.935 6.443 1.596 1.253 3.676 2.03 6.097 2.03 2.906 0 5.3-1.178 6.838-2.983 1.282-1.503 2.024-3.484 2.024-5.64 0-5.265-3.99-8.347-9.06-8.347zm19.629 15.767c-.797 0-1.738-.125-2.307-.477-.257-.174-.37-.425-.37-1.428v-5.54h1.965c2.736 0 5.271.677 5.271 3.61 0 2.882-2.564 3.835-4.559 3.835zm-2.678-13.562c0-.326.085-.551.2-.677.17-.175.512-.326 1.966-.326 2.478 0 4.102.853 4.102 3.084 0 1.83-1.054 3.184-4.302 3.184h-1.966v-5.265zm4.872 5.565c1.682-.25 4.189-1.228 4.189-3.785 0-1.48-.94-2.607-2.593-3.158-.855-.276-2.052-.427-4.103-.427h-7.693v.752c2.109.126 2.678.351 2.678 1.53v11.606c0 1.203-.512 1.404-2.678 1.53v.75h7.95c4.33 0 7.521-1.628 7.521-4.837 0-2.907-3.134-3.71-5.27-3.96zm20.883 7.471c-.826.576-1.824.827-2.907.827-1.88 0-3.39-.803-4.473-2.13-1.14-1.405-1.852-3.36-1.852-6.017 0-3.134 1.055-5.115 2.707-6.193.855-.6 1.909-.827 3.02-.827 1.567 0 2.878.527 3.903 1.58 1.311 1.379 2.166 3.41 2.166 6.217 0 3.334-.969 5.44-2.564 6.543zm-3.448-15.241c-1.966 0-3.846.576-5.385 1.629-2.08 1.428-3.448 3.81-3.448 6.868 0 2.658 1.112 4.939 2.935 6.443 1.596 1.253 3.676 2.03 6.097 2.03 2.906 0 5.3-1.178 6.838-2.983 1.282-1.503 2.024-3.484 2.024-5.64 0-5.265-3.99-8.347-9.06-8.347z"/></g></svg>